<?xml version="1.0" encoding="iso-8859-1"?>
<!-- Generator: Adobe Illustrator 27.0.0, SVG Export Plug-In . SVG Version: 6.00 Build 0)  -->
<svg version="1.1" id="Layer_1" xmlns="http://www.w3.org/2000/svg" xmlns:xlink="http://www.w3.org/1999/xlink" x="0px" y="0px"
	 viewBox="0 0 500 500" style="enable-background:new 0 0 500 500;" xml:space="preserve">
<g id="watermark_1_">
	<g>
		<g id="watermark" style="opacity:0.61;">
			<g>
				<g>
					<g>
						<g>
							<polygon style="fill:#FFFFFF;" points="213.765,461.172 208.204,474.017 205.268,474.017 199.726,461.172 202.938,461.172 
								206.846,470.347 210.81,461.172 							"/>
						</g>
						<g>
							<path style="fill:#FFFFFF;" d="M223.507,469.741h-7.469c0.275,1.23,1.321,1.982,2.826,1.982c1.046,0,1.798-0.312,2.477-0.954
								l1.523,1.651c-0.917,1.046-2.294,1.597-4.074,1.597c-3.413,0-5.634-2.147-5.634-5.083c0-2.954,2.257-5.083,5.267-5.083
								c2.899,0,5.138,1.945,5.138,5.12C223.562,469.191,223.526,469.503,223.507,469.741 M216.002,468.071h4.863
								c-0.202-1.248-1.138-2.055-2.422-2.055C217.139,466.016,216.204,466.805,216.002,468.071"/>
						</g>
						<g>
							<path style="fill:#FFFFFF;" d="M224.735,468.934c0-2.973,2.294-5.083,5.505-5.083c2.074,0,3.707,0.899,4.423,2.514
								l-2.22,1.193c-0.532-0.936-1.321-1.358-2.221-1.358c-1.45,0-2.587,1.009-2.587,2.734c0,1.725,1.138,2.734,2.587,2.734
								c0.899,0,1.688-0.404,2.221-1.358l2.22,1.211c-0.716,1.578-2.349,2.495-4.423,2.495
								C227.029,474.017,224.735,471.907,224.735,468.934"/>
						</g>
						<g>
							<path style="fill:#FFFFFF;" d="M242.828,473.393c-0.587,0.422-1.45,0.624-2.331,0.624c-2.33,0-3.688-1.193-3.688-3.542
								v-4.055h-1.523v-2.202h1.523v-2.404h2.863v2.404h2.459v2.202h-2.459v4.019c0,0.844,0.458,1.303,1.229,1.303
								c0.422,0,0.844-0.128,1.156-0.367L242.828,473.393z"/>
						</g>
					</g>
					<g>
						<path style="fill:#FFFFFF;" d="M262.474,463.997v2.643c-0.238-0.018-0.422-0.037-0.642-0.037
							c-1.578,0-2.624,0.862-2.624,2.753v4.661h-2.863v-9.873h2.734v1.303C259.776,464.493,260.951,463.997,262.474,463.997"/>
					</g>
					<g>
						<path style="fill:#FFFFFF;" d="M263.299,472.53l1.009-2.239c1.083,0.789,2.697,1.339,4.239,1.339
							c1.762,0,2.477-0.587,2.477-1.376c0-2.404-7.469-0.752-7.469-5.524c0-2.184,1.762-4,5.413-4c1.615,0,3.267,0.385,4.459,1.138
							l-0.918,2.257c-1.193-0.679-2.422-1.009-3.56-1.009c-1.761,0-2.44,0.66-2.44,1.468c0,2.367,7.468,0.734,7.468,5.45
							c0,2.147-1.78,3.982-5.45,3.982C266.492,474.017,264.437,473.411,263.299,472.53"/>
					</g>
					<g>
						<path style="fill:#FFFFFF;" d="M285.428,469.741h-7.469c0.275,1.23,1.321,1.982,2.826,1.982c1.046,0,1.798-0.312,2.477-0.954
							l1.523,1.651c-0.918,1.046-2.294,1.597-4.074,1.597c-3.413,0-5.634-2.147-5.634-5.083c0-2.954,2.257-5.083,5.267-5.083
							c2.9,0,5.138,1.945,5.138,5.12C285.484,469.191,285.447,469.503,285.428,469.741 M277.923,468.071h4.863
							c-0.202-1.248-1.138-2.055-2.422-2.055C279.061,466.016,278.125,466.805,277.923,468.071"/>
					</g>
					<g>
						<path style="fill:#FFFFFF;" d="M297.007,469.741h-7.469c0.275,1.23,1.321,1.982,2.826,1.982c1.046,0,1.798-0.312,2.477-0.954
							l1.523,1.651c-0.918,1.046-2.294,1.597-4.074,1.597c-3.413,0-5.634-2.147-5.634-5.083c0-2.954,2.257-5.083,5.267-5.083
							c2.899,0,5.138,1.945,5.138,5.12C297.062,469.191,297.025,469.503,297.007,469.741 M289.501,468.071h4.863
							c-0.202-1.248-1.138-2.055-2.422-2.055C290.639,466.016,289.703,466.805,289.501,468.071"/>
					</g>
					<g>
						<polygon style="fill:#FFFFFF;" points="303.208,470.145 301.831,471.503 301.831,474.017 298.969,474.017 298.969,460.401 
							301.831,460.401 301.831,468.108 306.016,464.144 309.429,464.144 305.318,468.328 309.796,474.017 306.327,474.017 						"/>
					</g>
					<g>
						<path style="fill:#FFFFFF;" d="M256.601,475.359L256.601,475.359l-2.86-2.86c-0.435,0.508-0.953,0.943-1.534,1.284
							c-0.092,0.069-0.186,0.136-0.283,0.199l3.027,3.027c0.456,0.456,1.195,0.456,1.65,0
							C257.057,476.554,257.057,475.815,256.601,475.359"/>
					</g>
					<g>
						<path style="fill:#FFFFFF;" d="M249.984,463.244c0.221-0.173,0.495-0.281,0.797-0.281c0.042,0,0.083,0.002,0.124,0.006
							c-0.214-0.156-0.478-0.249-0.764-0.249c-0.395,0-0.744,0.18-0.981,0.458c-0.051,0-0.1,0.006-0.151,0.008
							c0.039-0.077,0.064-0.162,0.064-0.255c0-0.234-0.143-0.434-0.346-0.519c0.087,0.126,0.138,0.279,0.138,0.445
							c0,0.122-0.031,0.237-0.081,0.341c-2.811,0.201-5.03,2.539-5.03,5.4c0,2.993,2.426,5.42,5.42,5.42
							c2.993,0,5.42-2.426,5.42-5.42C254.595,465.879,252.593,463.635,249.984,463.244 M247.983,464.656
							c0.435,0,0.844,0.112,1.199,0.309c0.374-0.245,0.82-0.387,1.299-0.387c0.711,0,1.348,0.312,1.784,0.806
							c-0.435-0.379-1.004-0.61-1.627-0.61c-0.449,0-0.87,0.12-1.234,0.329c-0.079,0.046-0.156,0.096-0.229,0.15
							c-0.065-0.048-0.133-0.093-0.204-0.134c-0.369-0.219-0.8-0.344-1.26-0.344c-0.3,0-0.588,0.054-0.854,0.152
							C247.196,464.754,247.578,464.656,247.983,464.656 M251.772,469.098c0.115,0.305,0.181,0.634,0.181,0.979
							c0,1.534-1.244,2.777-2.778,2.777c-1.534,0-2.777-1.243-2.777-2.777c0-0.345,0.066-0.674,0.181-0.979
							c-0.62-0.382-1.035-1.064-1.035-1.846c0-1.197,0.971-2.168,2.168-2.168c0.565,0,1.078,0.218,1.463,0.572
							c0.386-0.354,0.899-0.572,1.464-0.572c1.197,0,2.168,0.971,2.168,2.168C252.807,468.034,252.392,468.716,251.772,469.098"/>
					</g>
					<g>
						<path style="fill:#FFFFFF;" d="M251.666,467.061c0,0.497-0.404,0.901-0.901,0.901c-0.497,0-0.901-0.404-0.901-0.901
							s0.404-0.901,0.901-0.901c0.101,0,0.197,0.017,0.287,0.047c-0.03,0.062-0.045,0.132-0.045,0.204
							c0,0.273,0.221,0.494,0.494,0.494c0.05,0,0.099-0.008,0.146-0.022C251.66,466.941,251.666,467,251.666,467.061"/>
					</g>
					<g>
						<path style="fill:#FFFFFF;" d="M248.255,467.061c0,0.376-0.305,0.681-0.681,0.681c-0.376,0-0.681-0.305-0.681-0.681
							s0.305-0.681,0.681-0.681c0.076,0,0.149,0.013,0.217,0.035c-0.023,0.047-0.034,0.1-0.034,0.155
							c0,0.206,0.167,0.374,0.374,0.374c0.038,0,0.075-0.006,0.11-0.017C248.25,466.97,248.255,467.015,248.255,467.061"/>
					</g>
					<g>
						<g>
							<g>
								<rect x="242.908" y="467.83" style="fill:#FFFFFF;" width="0.616" height="0.616"/>
							</g>
							<g>
								<rect x="254.827" y="467.83" style="fill:#FFFFFF;" width="0.616" height="0.616"/>
							</g>
							<g>
								<path style="fill:#FFFFFF;" d="M255.205,468.082h-0.14c0-3.248-2.642-5.89-5.89-5.89c-3.248,0-5.89,2.642-5.89,5.89h-0.14
									c0-1.611,0.627-3.125,1.766-4.264c1.139-1.139,2.653-1.766,4.264-1.766c1.611,0,3.125,0.627,4.264,1.766
									C254.578,464.957,255.205,466.471,255.205,468.082"/>
							</g>
						</g>
						<g>
							<rect x="248.868" y="461.814" style="fill:#FFFFFF;" width="0.616" height="0.616"/>
						</g>
						<g>
							<rect x="244.95" y="462.052" style="fill:#FFFFFF;" width="8.45" height="0.14"/>
						</g>
						<g>
							<path style="fill:#FFFFFF;" d="M245.174,462.15c0,0.108-0.088,0.196-0.196,0.196c-0.108,0-0.196-0.088-0.196-0.196
								c0-0.108,0.088-0.196,0.196-0.196C245.086,461.954,245.174,462.042,245.174,462.15"/>
						</g>
						<g>
							<path style="fill:#FFFFFF;" d="M253.596,462.15c0,0.108-0.088,0.196-0.196,0.196c-0.108,0-0.196-0.088-0.196-0.196
								c0-0.108,0.088-0.196,0.196-0.196C253.509,461.954,253.596,462.042,253.596,462.15"/>
						</g>
					</g>
				</g>
				<g>
					<path style="fill:#FFFFFF;" d="M314.356,473.409c0,1.559-2.364,1.559-2.364,0C311.993,471.851,314.356,471.851,314.356,473.409
						z"/>
				</g>
				<g>
					<g>
						<g>
							<path style="fill:#FFFFFF;" d="M161.739,466.549l1.772,6.088l1.855-6.088h2.215l-2.823,8.14h-2.33l-0.837-2.396l-0.722-2.708
								l-0.722,2.708l-0.837,2.396h-2.33l-2.839-8.14h2.231l1.855,6.088l1.756-6.088H161.739z"/>
						</g>
						<g>
							<path style="fill:#FFFFFF;" d="M176.713,466.549l1.772,6.088l1.855-6.088h2.215l-2.823,8.14h-2.33l-0.837-2.396l-0.722-2.708
								l-0.722,2.708l-0.837,2.396h-2.33l-2.839-8.14h2.231l1.855,6.088l1.756-6.088H176.713z"/>
						</g>
						<g>
							<path style="fill:#FFFFFF;" d="M191.687,466.549l1.772,6.088l1.855-6.088h2.215l-2.823,8.14h-2.33l-0.837-2.396l-0.722-2.708
								l-0.722,2.708l-0.837,2.396h-2.33l-2.839-8.14h2.231l1.855,6.088l1.756-6.088H191.687z"/>
						</g>
					</g>
					<g>
						<path style="fill:#FFFFFF;" d="M200.908,473.52c0,1.559-2.364,1.559-2.364,0C198.545,471.962,200.908,471.962,200.908,473.52z
							"/>
					</g>
					<g>
						<path style="fill:#FFFFFF;" d="M322.71,473.409c-0.935,0.919-1.919,1.28-3.117,1.28c-2.346,0-4.3-1.411-4.3-4.282
							s1.953-4.284,4.3-4.284c1.149,0,2.035,0.329,2.921,1.199l-1.264,1.329c-0.476-0.428-1.066-0.64-1.623-0.64
							c-1.346,0-2.33,0.985-2.33,2.396c0,1.542,1.05,2.362,2.297,2.362c0.64,0,1.28-0.18,1.772-0.672L322.71,473.409z"/>
					</g>
					<g>
						<path style="fill:#FFFFFF;" d="M331.805,470.472c0,2.33-1.591,4.217-4.217,4.217c-2.626,0-4.201-1.887-4.201-4.217
							c0-2.314,1.609-4.217,4.185-4.217C330.149,466.255,331.805,468.158,331.805,470.472z M325.389,470.472
							c0,1.231,0.739,2.38,2.199,2.38c1.46,0,2.199-1.149,2.199-2.38c0-1.215-0.854-2.396-2.199-2.396
							C326.144,468.077,325.389,469.258,325.389,470.472z"/>
					</g>
					<g>
						<path style="fill:#FFFFFF;" d="M338.572,474.689v-4.332c0-1.068-0.559-2.035-1.658-2.035c-1.082,0-1.722,0.967-1.722,2.035
							v4.332h-2.003v-8.107h1.855l0.148,0.985c0.426-0.82,1.362-1.116,2.133-1.116c0.969,0,1.937,0.394,2.396,1.51
							c0.723-1.149,1.658-1.478,2.708-1.478c2.297,0,3.43,1.412,3.43,3.84v4.365h-2.003v-4.365c0-1.066-0.442-1.97-1.526-1.97
							c-1.082,0-1.756,0.935-1.756,2.003v4.332H338.572z"/>
					</g>
				</g>
			</g>
		</g>
		<g style="opacity:0.61;">
			<g>
				<g>
					<path style="fill:#FFFFFF;" d="M345.988,431.299c-0.006-1.224-0.959-2.121-2.189-2.14c-0.924-0.014-0.832,0.12-0.834-0.867
						c-0.003-1.097-0.007-2.194,0.003-3.292c0.003-0.379-0.112-0.691-0.362-0.976c-2.342-2.668-4.678-5.342-7.019-8.011
						c-0.12-0.137-0.275-0.244-0.414-0.366c-6.214,0-12.427,0-18.641,0c-0.794,0.293-1.14,0.868-1.138,1.709
						c0.01,3.748,0.004,7.496,0.004,11.243c0,0.556-0.003,0.589-0.55,0.551c-1.497-0.102-2.516,0.986-2.497,2.492
						c0.044,3.476,0.013,6.953,0.014,10.429c0.001,1.58,0.867,2.443,2.45,2.449c0.582,0.002,0.582,0.002,0.582,0.6
						c0,2.219-0.001,4.438,0.001,6.657c0.001,1.192,0.58,1.771,1.768,1.771c8.013,0.001,16.027,0.001,24.04,0
						c1.168,0,1.755-0.583,1.757-1.745c0.002-2.256,0-4.512,0.001-6.768c0-0.512,0.002-0.511,0.52-0.515
						c0.271-0.002,0.541,0.008,0.809-0.058c0.996-0.246,1.69-1.044,1.694-2.069C346.003,438.696,346.005,434.997,345.988,431.299z
						 M317.537,417.162c5.337,0,10.674,0,16.01,0c0.548,0,0.554,0.007,0.554,0.561c0.001,2.243-0.001,4.486,0.001,6.73
						c0.001,0.811,0.249,1.059,1.06,1.059c1.91,0.001,3.821,0,5.731,0.001c0.458,0,0.479,0.021,0.481,0.483
						c0.003,0.887,0.002,1.775,0,2.662c-0.001,0.477-0.024,0.498-0.504,0.499c-3.895,0.001-7.79,0-11.684,0
						c-3.882,0-7.765,0-11.647,0c-0.55,0-0.552-0.001-0.552-0.561c-0.001-3.624-0.001-7.247,0-10.871
						C316.987,417.166,316.991,417.162,317.537,417.162z M340.822,451.579c-3.883,0.001-7.766,0-11.65,0c-3.871,0-7.742,0-11.613,0
						c-0.572,0-0.574-0.002-0.574-0.579c-0.001-1.997-0.001-3.994,0.001-5.991c0-0.464,0.023-0.486,0.478-0.487
						c7.803-0.001,15.607-0.001,23.41,0c0.478,0,0.499,0.02,0.499,0.503c0.002,1.997,0.001,3.994,0,5.991
						C341.375,451.574,341.37,451.579,340.822,451.579z"/>
				</g>
				<g>
					<g>
						<rect x="327.418" y="417.053" style="fill:#FFFFFF;" width="1.757" height="1.054"/>
					</g>
					<g>
						<rect x="325.662" y="418.107" style="fill:#FFFFFF;" width="1.757" height="1.054"/>
					</g>
					<g>
						<rect x="327.418" y="419.161" style="fill:#FFFFFF;" width="1.757" height="1.054"/>
					</g>
					<g>
						<rect x="325.662" y="420.215" style="fill:#FFFFFF;" width="1.757" height="1.054"/>
					</g>
					<g>
						<rect x="327.418" y="421.269" style="fill:#FFFFFF;" width="1.757" height="1.054"/>
					</g>
					<g>
						<rect x="325.662" y="422.323" style="fill:#FFFFFF;" width="1.757" height="1.054"/>
					</g>
					<g>
						<rect x="327.418" y="423.378" style="fill:#FFFFFF;" width="1.757" height="1.054"/>
					</g>
					<g>
						<rect x="325.662" y="424.432" style="fill:#FFFFFF;" width="1.757" height="1.054"/>
					</g>
					<g>
						<rect x="327.418" y="425.486" style="fill:#FFFFFF;" width="1.757" height="1.054"/>
					</g>
					<g>
						<rect x="325.662" y="426.54" style="fill:#FFFFFF;" width="1.757" height="1.054"/>
					</g>
					<g>
						<rect x="327.418" y="427.594" style="fill:#FFFFFF;" width="1.757" height="1.054"/>
					</g>
					<g>
						<rect x="325.662" y="428.648" style="fill:#FFFFFF;" width="1.757" height="1.054"/>
					</g>
				</g>
			</g>
			<g>
				<path style="fill:#FFFFFF;" d="M187.637,431.299c-0.006-1.224-0.959-2.121-2.189-2.14c-0.924-0.014-0.832,0.12-0.834-0.867
					c-0.003-1.097-0.007-2.194,0.003-3.292c0.003-0.379-0.112-0.691-0.362-0.976c-2.342-2.668-4.678-5.342-7.019-8.011
					c-0.12-0.137-0.275-0.244-0.414-0.366c-6.214,0-12.427,0-18.641,0c-0.794,0.293-1.14,0.868-1.138,1.709
					c0.01,3.748,0.004,7.496,0.004,11.243c0,0.556-0.003,0.589-0.55,0.551c-1.497-0.102-2.516,0.986-2.497,2.492
					c0.044,3.476,0.013,6.953,0.014,10.429c0.001,1.58,0.867,2.443,2.45,2.449c0.582,0.002,0.582,0.002,0.582,0.6
					c0,2.219-0.001,4.438,0.001,6.657c0.001,1.192,0.58,1.771,1.768,1.771c8.013,0.001,16.027,0.001,24.04,0
					c1.168,0,1.755-0.583,1.757-1.745c0.002-2.256,0-4.512,0.001-6.768c0-0.512,0.002-0.511,0.52-0.515
					c0.271-0.002,0.541,0.008,0.809-0.058c0.996-0.246,1.69-1.044,1.694-2.069C187.652,438.696,187.655,434.997,187.637,431.299z
					 M159.187,417.162c5.337,0,10.674,0,16.01,0c0.548,0,0.554,0.007,0.554,0.561c0.001,2.243-0.001,4.486,0.001,6.73
					c0.001,0.811,0.249,1.059,1.06,1.059c1.91,0.001,3.821,0,5.731,0.001c0.458,0,0.479,0.021,0.481,0.483
					c0.003,0.887,0.002,1.775,0,2.662c-0.001,0.477-0.024,0.498-0.504,0.499c-3.895,0.001-7.79,0-11.684,0
					c-3.882,0-7.765,0-11.647,0c-0.55,0-0.552-0.001-0.552-0.561c-0.001-3.624-0.001-7.247,0-10.871
					C158.636,417.166,158.64,417.162,159.187,417.162z M182.472,451.579c-3.883,0.001-7.766,0-11.65,0c-3.871,0-7.742,0-11.613,0
					c-0.572,0-0.574-0.002-0.574-0.579c-0.001-1.997-0.001-3.994,0.001-5.991c0-0.464,0.023-0.486,0.478-0.487
					c7.803-0.001,15.607-0.001,23.41,0c0.478,0,0.499,0.02,0.499,0.503c0.002,1.997,0.001,3.994,0,5.991
					C183.024,451.574,183.019,451.579,182.472,451.579z"/>
			</g>
			<g>
				<path style="fill:#FFFFFF;" d="M159.779,440.669v-7.897h2.779c0.375,0,0.726,0.061,1.053,0.182
					c0.327,0.121,0.612,0.292,0.855,0.513c0.242,0.221,0.434,0.483,0.573,0.789c0.14,0.305,0.21,0.642,0.21,1.009
					c0,0.375-0.07,0.715-0.21,1.02c-0.14,0.305-0.331,0.568-0.573,0.789c-0.243,0.221-0.528,0.392-0.855,0.513
					c-0.327,0.121-0.678,0.182-1.053,0.182h-1.29v2.901H159.779z M162.58,436.356c0.39,0,0.684-0.111,0.882-0.331
					c0.199-0.22,0.298-0.474,0.298-0.761c0-0.14-0.024-0.276-0.072-0.408c-0.048-0.132-0.121-0.248-0.221-0.347
					c-0.099-0.099-0.223-0.178-0.37-0.237c-0.147-0.059-0.32-0.089-0.518-0.089h-1.312v2.173H162.58z"/>
				<path style="fill:#FFFFFF;" d="M166.308,432.771h1.731l3.177,5.294h0.088l-0.088-1.522v-3.772h1.478v7.897h-1.566l-3.353-5.592
					h-0.088l0.088,1.522v4.07h-1.467V432.771z"/>
				<path style="fill:#FFFFFF;" d="M177.922,436.334h3.872c0.022,0.089,0.04,0.195,0.055,0.32c0.014,0.125,0.022,0.25,0.022,0.375
					c0,0.507-0.077,0.985-0.231,1.434c-0.154,0.449-0.397,0.849-0.728,1.202c-0.353,0.375-0.776,0.666-1.268,0.871
					c-0.493,0.206-1.055,0.309-1.688,0.309c-0.574,0-1.114-0.103-1.622-0.309c-0.507-0.206-0.948-0.492-1.323-0.86
					c-0.375-0.367-0.673-0.803-0.894-1.307c-0.221-0.504-0.331-1.053-0.331-1.649c0-0.595,0.11-1.145,0.331-1.649
					c0.221-0.504,0.518-0.939,0.894-1.307c0.375-0.367,0.816-0.654,1.323-0.86c0.507-0.206,1.048-0.309,1.622-0.309
					c0.64,0,1.211,0.11,1.715,0.331c0.504,0.221,0.935,0.526,1.296,0.915l-1.025,1.004c-0.258-0.272-0.544-0.48-0.861-0.623
					c-0.316-0.143-0.695-0.215-1.136-0.215c-0.361,0-0.703,0.065-1.026,0.193c-0.324,0.129-0.607,0.311-0.85,0.546
					c-0.242,0.235-0.436,0.52-0.579,0.855c-0.143,0.335-0.215,0.708-0.215,1.119c0,0.412,0.072,0.785,0.215,1.12
					c0.143,0.335,0.338,0.62,0.584,0.855c0.246,0.235,0.531,0.418,0.855,0.546c0.323,0.129,0.669,0.193,1.037,0.193
					c0.419,0,0.773-0.061,1.064-0.182c0.29-0.121,0.538-0.278,0.744-0.469c0.148-0.132,0.275-0.3,0.381-0.502
					c0.106-0.202,0.189-0.428,0.248-0.678h-2.482V436.334z"/>
			</g>
			<g>
				<path style="fill:#FFFFFF;" d="M224.019,431.299c-0.006-1.224-0.959-2.121-2.189-2.14c-0.924-0.014-0.832,0.12-0.834-0.867
					c-0.003-1.097-0.007-2.194,0.003-3.292c0.003-0.379-0.112-0.691-0.362-0.976c-2.342-2.668-4.678-5.342-7.019-8.011
					c-0.12-0.137-0.275-0.244-0.414-0.366c-6.214,0-12.427,0-18.641,0c-0.794,0.293-1.14,0.868-1.138,1.709
					c0.01,3.748,0.004,7.496,0.004,11.243c0,0.556-0.003,0.589-0.55,0.551c-1.497-0.102-2.516,0.986-2.497,2.492
					c0.044,3.476,0.013,6.953,0.014,10.429c0.001,1.58,0.867,2.443,2.45,2.449c0.582,0.002,0.582,0.002,0.582,0.6
					c0,2.219-0.001,4.438,0.001,6.657c0.001,1.192,0.58,1.771,1.768,1.771c8.013,0.001,16.027,0.001,24.04,0
					c1.168,0,1.755-0.583,1.757-1.745c0.002-2.256,0-4.512,0.001-6.768c0-0.512,0.002-0.511,0.52-0.515
					c0.271-0.002,0.541,0.008,0.809-0.058c0.997-0.246,1.69-1.044,1.694-2.069C224.034,438.696,224.036,434.997,224.019,431.299z
					 M195.568,417.162c5.337,0,10.674,0,16.01,0c0.548,0,0.554,0.007,0.554,0.561c0.001,2.243-0.001,4.486,0.001,6.73
					c0.001,0.811,0.249,1.059,1.06,1.059c1.91,0.001,3.821,0,5.731,0.001c0.458,0,0.479,0.021,0.481,0.483
					c0.003,0.887,0.002,1.775,0,2.662c-0.001,0.477-0.024,0.498-0.504,0.499c-3.895,0.001-7.79,0-11.684,0
					c-3.882,0-7.765,0-11.647,0c-0.55,0-0.552-0.001-0.552-0.561c-0.001-3.624-0.001-7.247,0-10.871
					C195.018,417.166,195.022,417.162,195.568,417.162z M218.854,451.579c-3.883,0.001-7.766,0-11.65,0c-3.871,0-7.742,0-11.613,0
					c-0.572,0-0.574-0.002-0.574-0.579c-0.001-1.997-0.001-3.994,0.001-5.991c0-0.464,0.023-0.486,0.478-0.487
					c7.803-0.001,15.607-0.001,23.41,0c0.478,0,0.499,0.02,0.499,0.503c0.002,1.997,0.001,3.994,0,5.991
					C219.406,451.574,219.401,451.579,218.854,451.579z"/>
			</g>
			<g>
				<path style="fill:#FFFFFF;" d="M205.111,432.771h1.699l2.967,7.897h-1.644l-0.651-1.886h-3.044l-0.651,1.886h-1.643
					L205.111,432.771z M206.997,437.415l-0.706-1.974l-0.287-0.96h-0.088l-0.287,0.96l-0.706,1.974H206.997z"/>
				<path style="fill:#FFFFFF;" d="M211.331,434.536c-0.125,0-0.245-0.024-0.359-0.072c-0.114-0.048-0.213-0.114-0.298-0.199
					c-0.084-0.084-0.151-0.182-0.198-0.292c-0.048-0.11-0.072-0.232-0.072-0.364s0.024-0.254,0.072-0.364
					c0.048-0.11,0.114-0.208,0.198-0.292c0.084-0.084,0.184-0.151,0.298-0.198c0.114-0.048,0.233-0.072,0.359-0.072
					c0.257,0,0.478,0.09,0.662,0.27c0.184,0.181,0.276,0.399,0.276,0.656s-0.092,0.476-0.276,0.656
					C211.809,434.446,211.589,434.536,211.331,434.536z M210.615,440.669v-5.404h1.445v5.404H210.615z"/>
			</g>
			<g>
				<path style="fill:#FFFFFF;" d="M261.044,431.299c-0.006-1.224-0.959-2.121-2.189-2.14c-0.924-0.014-0.832,0.12-0.834-0.867
					c-0.003-1.097-0.007-2.194,0.003-3.292c0.003-0.379-0.112-0.691-0.362-0.976c-2.342-2.668-4.678-5.342-7.019-8.011
					c-0.12-0.137-0.275-0.244-0.414-0.366c-6.214,0-12.427,0-18.641,0c-0.794,0.293-1.14,0.868-1.138,1.709
					c0.01,3.748,0.004,7.496,0.004,11.243c0,0.556-0.003,0.589-0.55,0.551c-1.497-0.102-2.516,0.986-2.497,2.492
					c0.044,3.476,0.013,6.953,0.014,10.429c0.001,1.58,0.867,2.443,2.45,2.449c0.582,0.002,0.582,0.002,0.582,0.6
					c0,2.219-0.001,4.438,0.001,6.657c0.001,1.192,0.58,1.771,1.768,1.771c8.013,0.001,16.027,0.001,24.04,0
					c1.168,0,1.755-0.583,1.757-1.745c0.002-2.256,0-4.512,0.001-6.768c0-0.512,0.002-0.511,0.52-0.515
					c0.271-0.002,0.541,0.008,0.809-0.058c0.996-0.246,1.69-1.044,1.694-2.069C261.059,438.696,261.061,434.997,261.044,431.299z
					 M232.593,417.162c5.337,0,10.674,0,16.01,0c0.548,0,0.554,0.007,0.554,0.561c0.001,2.243-0.001,4.486,0.001,6.73
					c0.001,0.811,0.249,1.059,1.06,1.059c1.91,0.001,3.821,0,5.731,0.001c0.458,0,0.479,0.021,0.481,0.483
					c0.003,0.887,0.002,1.775,0,2.662c-0.001,0.477-0.024,0.498-0.504,0.499c-3.895,0.001-7.79,0-11.684,0
					c-3.882,0-7.765,0-11.647,0c-0.55,0-0.552-0.001-0.552-0.561c-0.001-3.624-0.001-7.247,0-10.871
					C232.042,417.166,232.047,417.162,232.593,417.162z M255.878,451.579c-3.883,0.001-7.766,0-11.65,0c-3.871,0-7.742,0-11.613,0
					c-0.572,0-0.574-0.002-0.574-0.579c-0.001-1.997-0.001-3.994,0.001-5.991c0-0.464,0.023-0.486,0.478-0.487
					c7.803-0.001,15.607-0.001,23.41,0c0.478,0,0.499,0.02,0.499,0.503c0.002,1.997,0.001,3.994,0,5.991
					C256.431,451.574,256.426,451.579,255.878,451.579z"/>
			</g>
			<g>
				<path style="fill:#FFFFFF;" d="M236.361,440.845c-0.338,0-0.662-0.048-0.971-0.143c-0.309-0.095-0.592-0.239-0.849-0.43
					c-0.257-0.191-0.481-0.425-0.673-0.7c-0.191-0.276-0.342-0.597-0.452-0.965l1.401-0.551c0.103,0.397,0.283,0.726,0.54,0.987
					c0.257,0.261,0.596,0.392,1.015,0.392c0.154,0,0.303-0.02,0.447-0.061c0.143-0.04,0.272-0.099,0.386-0.176
					s0.204-0.175,0.27-0.292c0.066-0.118,0.099-0.254,0.099-0.408c0-0.147-0.026-0.279-0.077-0.397
					c-0.051-0.117-0.138-0.227-0.259-0.331c-0.121-0.103-0.28-0.202-0.475-0.298c-0.195-0.095-0.435-0.195-0.722-0.298l-0.485-0.176
					c-0.213-0.073-0.429-0.173-0.645-0.298c-0.217-0.125-0.413-0.276-0.59-0.452c-0.177-0.176-0.322-0.384-0.436-0.623
					c-0.114-0.239-0.171-0.509-0.171-0.81c0-0.309,0.06-0.597,0.182-0.866c0.121-0.268,0.294-0.503,0.518-0.706
					c0.224-0.202,0.492-0.36,0.805-0.474s0.66-0.171,1.042-0.171c0.397,0,0.74,0.053,1.031,0.16
					c0.291,0.107,0.537,0.243,0.739,0.408c0.202,0.165,0.366,0.348,0.491,0.546c0.125,0.199,0.217,0.386,0.276,0.563l-1.312,0.551
					c-0.074-0.221-0.208-0.419-0.402-0.596c-0.195-0.176-0.462-0.265-0.8-0.265c-0.324,0-0.592,0.075-0.805,0.226
					c-0.213,0.151-0.32,0.348-0.32,0.59c0,0.235,0.103,0.436,0.309,0.601c0.206,0.165,0.533,0.325,0.982,0.48l0.497,0.165
					c0.316,0.111,0.605,0.237,0.866,0.381c0.261,0.143,0.485,0.314,0.673,0.513c0.187,0.199,0.331,0.425,0.43,0.678
					c0.1,0.254,0.149,0.546,0.149,0.877c0,0.412-0.083,0.767-0.248,1.064c-0.165,0.298-0.377,0.542-0.634,0.734
					c-0.258,0.191-0.548,0.335-0.872,0.43C236.986,440.797,236.67,440.845,236.361,440.845z"/>
				<path style="fill:#FFFFFF;" d="M239.516,432.771h1.61l1.633,4.754l0.287,1.015h0.088l0.309-1.015l1.699-4.754h1.61l-2.879,7.897
					h-1.566L239.516,432.771z"/>
				<path style="fill:#FFFFFF;" d="M251.097,436.334h3.871c0.022,0.089,0.04,0.195,0.055,0.32c0.015,0.125,0.023,0.25,0.023,0.375
					c0,0.507-0.078,0.985-0.232,1.434c-0.154,0.449-0.397,0.849-0.728,1.202c-0.353,0.375-0.775,0.666-1.268,0.871
					c-0.493,0.206-1.055,0.309-1.688,0.309c-0.574,0-1.114-0.103-1.621-0.309c-0.507-0.206-0.949-0.492-1.324-0.86
					c-0.375-0.367-0.673-0.803-0.894-1.307c-0.22-0.504-0.331-1.053-0.331-1.649c0-0.595,0.11-1.145,0.331-1.649
					c0.221-0.504,0.518-0.939,0.894-1.307c0.375-0.367,0.816-0.654,1.324-0.86c0.507-0.206,1.047-0.309,1.621-0.309
					c0.64,0,1.211,0.11,1.715,0.331c0.504,0.221,0.936,0.526,1.296,0.915l-1.026,1.004c-0.257-0.272-0.544-0.48-0.861-0.623
					c-0.316-0.143-0.694-0.215-1.136-0.215c-0.36,0-0.702,0.065-1.026,0.193c-0.323,0.129-0.607,0.311-0.849,0.546
					c-0.243,0.235-0.436,0.52-0.579,0.855c-0.143,0.335-0.215,0.708-0.215,1.119c0,0.412,0.072,0.785,0.215,1.12
					c0.143,0.335,0.338,0.62,0.585,0.855c0.246,0.235,0.531,0.418,0.854,0.546c0.324,0.129,0.669,0.193,1.037,0.193
					c0.419,0,0.774-0.061,1.064-0.182c0.29-0.121,0.539-0.278,0.745-0.469c0.147-0.132,0.274-0.3,0.38-0.502
					c0.107-0.202,0.189-0.428,0.248-0.678h-2.482V436.334z"/>
			</g>
			<g>
				<path style="fill:#FFFFFF;" d="M297.3,431.299c-0.006-1.224-0.959-2.121-2.189-2.14c-0.924-0.014-0.832,0.12-0.834-0.867
					c-0.003-1.097-0.007-2.194,0.003-3.292c0.003-0.379-0.112-0.691-0.362-0.976c-2.342-2.668-4.678-5.342-7.019-8.011
					c-0.12-0.137-0.275-0.244-0.414-0.366c-6.214,0-12.427,0-18.641,0c-0.794,0.293-1.14,0.868-1.138,1.709
					c0.01,3.748,0.004,7.496,0.004,11.243c0,0.556-0.003,0.589-0.55,0.551c-1.497-0.102-2.516,0.986-2.497,2.492
					c0.044,3.476,0.013,6.953,0.014,10.429c0.001,1.58,0.867,2.443,2.45,2.449c0.582,0.002,0.582,0.002,0.582,0.6
					c0,2.219-0.001,4.438,0.001,6.657c0.001,1.192,0.58,1.771,1.768,1.771c8.013,0.001,16.027,0.001,24.04,0
					c1.168,0,1.755-0.583,1.757-1.745c0.002-2.256,0-4.512,0.001-6.768c0-0.512,0.002-0.511,0.52-0.515
					c0.271-0.002,0.541,0.008,0.809-0.058c0.996-0.246,1.69-1.044,1.694-2.069C297.315,438.696,297.318,434.997,297.3,431.299z
					 M268.85,417.162c5.337,0,10.674,0,16.01,0c0.548,0,0.554,0.007,0.554,0.561c0.001,2.243-0.001,4.486,0.001,6.73
					c0.001,0.811,0.249,1.059,1.06,1.059c1.91,0.001,3.821,0,5.731,0.001c0.458,0,0.479,0.021,0.481,0.483
					c0.003,0.887,0.002,1.775,0,2.662c-0.001,0.477-0.024,0.498-0.504,0.499c-3.895,0.001-7.79,0-11.684,0
					c-3.882,0-7.765,0-11.647,0c-0.55,0-0.552-0.001-0.552-0.561c-0.001-3.624-0.001-7.247,0-10.871
					C268.299,417.166,268.303,417.162,268.85,417.162z M292.135,451.579c-3.883,0.001-7.766,0-11.65,0c-3.871,0-7.742,0-11.613,0
					c-0.572,0-0.574-0.002-0.574-0.579c-0.001-1.997-0.001-3.994,0.001-5.991c0-0.464,0.023-0.486,0.478-0.487
					c7.803-0.001,15.607-0.001,23.41,0c0.478,0,0.499,0.02,0.499,0.503c0.001,1.997,0.001,3.994,0,5.991
					C292.687,451.574,292.682,451.579,292.135,451.579z"/>
			</g>
			<g>
				<path style="fill:#FFFFFF;" d="M272.966,434.183v1.831h3.165v1.412h-3.165v1.831h3.518v1.412h-5.007v-7.897h5.007v1.412H272.966
					z"/>
				<path style="fill:#FFFFFF;" d="M277.852,440.669v-7.897h2.779c0.375,0,0.726,0.061,1.053,0.182
					c0.327,0.121,0.612,0.292,0.855,0.513c0.243,0.221,0.434,0.483,0.574,0.789c0.14,0.305,0.209,0.642,0.209,1.009
					c0,0.375-0.07,0.715-0.209,1.02c-0.14,0.305-0.331,0.568-0.574,0.789c-0.243,0.221-0.528,0.392-0.855,0.513
					c-0.327,0.121-0.678,0.182-1.053,0.182h-1.29v2.901H277.852z M280.653,436.356c0.389,0,0.684-0.111,0.882-0.331
					c0.199-0.22,0.298-0.474,0.298-0.761c0-0.14-0.024-0.276-0.072-0.408c-0.048-0.132-0.121-0.248-0.221-0.347
					c-0.099-0.099-0.222-0.178-0.37-0.237c-0.147-0.059-0.32-0.089-0.518-0.089h-1.312v2.173H280.653z"/>
				<path style="fill:#FFFFFF;" d="M286.797,440.845c-0.338,0-0.662-0.048-0.971-0.143c-0.309-0.095-0.592-0.239-0.849-0.43
					c-0.257-0.191-0.482-0.425-0.673-0.7c-0.191-0.276-0.342-0.597-0.452-0.965l1.401-0.551c0.103,0.397,0.283,0.726,0.541,0.987
					c0.257,0.261,0.595,0.392,1.015,0.392c0.154,0,0.303-0.02,0.447-0.061c0.143-0.04,0.272-0.099,0.386-0.176
					c0.114-0.077,0.204-0.175,0.27-0.292c0.066-0.118,0.1-0.254,0.1-0.408c0-0.147-0.026-0.279-0.077-0.397
					c-0.051-0.117-0.138-0.227-0.259-0.331c-0.121-0.103-0.279-0.202-0.474-0.298c-0.195-0.095-0.436-0.195-0.723-0.298
					l-0.485-0.176c-0.213-0.073-0.428-0.173-0.645-0.298c-0.217-0.125-0.414-0.276-0.59-0.452c-0.176-0.176-0.322-0.384-0.436-0.623
					c-0.114-0.239-0.171-0.509-0.171-0.81c0-0.309,0.061-0.597,0.182-0.866c0.121-0.268,0.294-0.503,0.518-0.706
					c0.224-0.202,0.493-0.36,0.805-0.474c0.312-0.114,0.66-0.171,1.042-0.171c0.397,0,0.741,0.053,1.031,0.16
					c0.29,0.107,0.537,0.243,0.739,0.408c0.202,0.165,0.365,0.348,0.491,0.546c0.125,0.199,0.217,0.386,0.276,0.563l-1.312,0.551
					c-0.074-0.221-0.208-0.419-0.403-0.596c-0.195-0.176-0.462-0.265-0.799-0.265c-0.324,0-0.592,0.075-0.805,0.226
					c-0.213,0.151-0.32,0.348-0.32,0.59c0,0.235,0.103,0.436,0.309,0.601c0.206,0.165,0.533,0.325,0.982,0.48l0.496,0.165
					c0.316,0.111,0.605,0.237,0.866,0.381c0.261,0.143,0.485,0.314,0.673,0.513c0.187,0.199,0.331,0.425,0.43,0.678
					c0.099,0.254,0.149,0.546,0.149,0.877c0,0.412-0.083,0.767-0.248,1.064c-0.165,0.298-0.377,0.542-0.634,0.734
					c-0.258,0.191-0.548,0.335-0.872,0.43C287.422,440.797,287.105,440.845,286.797,440.845z"/>
			</g>
			<g>
				<path style="fill:#FFFFFF;" d="M321.394,439.168l4.004-4.985h-3.827v-1.412h5.559v1.5l-3.96,4.985h4.004v1.412h-5.779V439.168z"
					/>
				<path style="fill:#FFFFFF;" d="M328.409,432.771h1.489v7.897h-1.489V432.771z"/>
				<path style="fill:#FFFFFF;" d="M331.486,440.669v-7.897h2.779c0.375,0,0.726,0.061,1.053,0.182
					c0.327,0.121,0.612,0.292,0.855,0.513s0.434,0.483,0.574,0.789c0.14,0.305,0.209,0.642,0.209,1.009
					c0,0.375-0.07,0.715-0.209,1.02c-0.14,0.305-0.331,0.568-0.574,0.789c-0.243,0.221-0.528,0.392-0.855,0.513
					c-0.327,0.121-0.678,0.182-1.053,0.182h-1.29v2.901H331.486z M334.288,436.356c0.389,0,0.684-0.111,0.882-0.331
					c0.199-0.22,0.298-0.474,0.298-0.761c0-0.14-0.024-0.276-0.072-0.408c-0.048-0.132-0.121-0.248-0.221-0.347
					c-0.099-0.099-0.222-0.178-0.37-0.237c-0.147-0.059-0.32-0.089-0.518-0.089h-1.312v2.173H334.288z"/>
			</g>
		</g>
		<g style="opacity:0.61;">
			<path style="fill:#FFFFFF;" d="M300.133,433.27h9.067v2.242h-9.067V433.27z M300.133,437.136h9.067v2.243h-9.067V437.136z"/>
		</g>
	</g>
	<g style="opacity:0.61;">
		<path style="fill:#FFFFFF;" d="M156.756,478.878h1.607c1.263,0,2.114,0.812,2.114,1.974c0,1.161-0.851,1.973-2.114,1.973h-1.607
			V478.878z M158.34,482.464c1.049,0,1.725-0.665,1.725-1.612c0-0.947-0.677-1.613-1.725-1.613h-1.167v3.225H158.34z"/>
		<path style="fill:#FFFFFF;" d="M165.139,480.851c0-1.15,0.879-2.007,2.075-2.007c1.184,0,2.069,0.851,2.069,2.007
			c0,1.156-0.885,2.007-2.069,2.007C166.019,482.858,165.139,482.002,165.139,480.851z M168.866,480.851
			c0-0.942-0.705-1.635-1.652-1.635c-0.953,0-1.663,0.693-1.663,1.635c0,0.941,0.71,1.635,1.663,1.635
			C168.162,482.486,168.866,481.793,168.866,480.851z"/>
		<path style="fill:#FFFFFF;" d="M179.596,478.878l-1.331,3.947h-0.44l-1.156-3.366l-1.161,3.366h-0.434l-1.331-3.947h0.429
			l1.139,3.394l1.178-3.394h0.389l1.161,3.411l1.156-3.411H179.596z"/>
		<path style="fill:#FFFFFF;" d="M187.731,478.878v3.947h-0.344l-2.537-3.202v3.202h-0.417v-3.947h0.344l2.543,3.203v-3.203H187.731
			z"/>
		<path style="fill:#FFFFFF;" d="M193.093,478.878h0.417v3.586h2.21v0.361h-2.627V478.878z"/>
		<path style="fill:#FFFFFF;" d="M200.061,480.851c0-1.15,0.879-2.007,2.075-2.007c1.184,0,2.069,0.851,2.069,2.007
			c0,1.156-0.885,2.007-2.069,2.007C200.941,482.858,200.061,482.002,200.061,480.851z M203.788,480.851
			c0-0.942-0.705-1.635-1.652-1.635c-0.953,0-1.663,0.693-1.663,1.635c0,0.941,0.71,1.635,1.663,1.635
			C203.083,482.486,203.788,481.793,203.788,480.851z"/>
		<path style="fill:#FFFFFF;" d="M211.636,481.77h-2.199l-0.474,1.054h-0.434l1.804-3.947h0.412l1.804,3.947h-0.44L211.636,481.77z
			 M211.484,481.432l-0.947-2.12l-0.947,2.12H211.484z"/>
		<path style="fill:#FFFFFF;" d="M217.28,478.878h1.607c1.263,0,2.114,0.812,2.114,1.974c0,1.161-0.851,1.973-2.114,1.973h-1.607
			V478.878z M218.864,482.464c1.049,0,1.725-0.665,1.725-1.612c0-0.947-0.677-1.613-1.725-1.613h-1.167v3.225H218.864z"/>
		<path style="fill:#FFFFFF;" d="M234.041,481.77h-2.199l-0.474,1.054h-0.434l1.804-3.947h0.412l1.804,3.947h-0.44L234.041,481.77z
			 M233.889,481.432l-0.947-2.12l-0.947,2.12H233.889z"/>
		<path style="fill:#FFFFFF;" d="M239.685,478.878h0.417v3.586h2.21v0.361h-2.627V478.878z"/>
		<path style="fill:#FFFFFF;" d="M247.082,478.878h0.417v3.586h2.21v0.361h-2.627V478.878z"/>
		<path style="fill:#FFFFFF;" d="M260.449,479.239v1.551h2.041v0.361h-2.041v1.675h-0.417v-3.947h2.706v0.361H260.449z"/>
		<path style="fill:#FFFFFF;" d="M267.678,478.878h0.417v3.947h-0.417V478.878z"/>
		<path style="fill:#FFFFFF;" d="M273.456,478.878h0.417v3.586h2.21v0.361h-2.627V478.878z"/>
		<path style="fill:#FFFFFF;" d="M283.644,482.464v0.361h-2.791v-3.947h2.706v0.361h-2.289v1.404h2.041v0.355h-2.041v1.466H283.644z
			"/>
		<path style="fill:#FFFFFF;" d="M294.672,479.239v1.551h2.041v0.361h-2.041v1.675h-0.417v-3.947h2.706v0.361H294.672z"/>
		<path style="fill:#FFFFFF;" d="M301.5,480.851c0-1.15,0.879-2.007,2.075-2.007c1.184,0,2.069,0.851,2.069,2.007
			c0,1.156-0.885,2.007-2.069,2.007C302.379,482.858,301.5,482.002,301.5,480.851z M305.226,480.851
			c0-0.942-0.705-1.635-1.652-1.635c-0.953,0-1.663,0.693-1.663,1.635c0,0.941,0.71,1.635,1.663,1.635
			C304.522,482.486,305.226,481.793,305.226,480.851z"/>
		<path style="fill:#FFFFFF;" d="M313.351,482.825l-0.902-1.269c-0.102,0.011-0.203,0.017-0.316,0.017h-1.06v1.252h-0.417v-3.947
			h1.477c1.004,0,1.613,0.507,1.613,1.353c0,0.62-0.327,1.054-0.902,1.24l0.964,1.353H313.351z M313.328,480.231
			c0-0.632-0.417-0.992-1.207-0.992h-1.048v1.979h1.048C312.911,481.218,313.328,480.851,313.328,480.231z"/>
		<path style="fill:#FFFFFF;" d="M322.907,478.878v3.947h-0.4v-3.158l-1.551,2.656h-0.197l-1.551-2.639v3.14h-0.4v-3.947h0.344
			l1.714,2.926l1.697-2.926H322.907z"/>
		<path style="fill:#FFFFFF;" d="M330.744,481.77h-2.199l-0.473,1.054h-0.434l1.804-3.947h0.411l1.804,3.947h-0.44L330.744,481.77z
			 M330.592,481.432l-0.947-2.12l-0.947,2.12H330.592z"/>
		<path style="fill:#FFFFFF;" d="M336.957,479.239h-1.387v-0.361h3.192v0.361h-1.387v3.586h-0.417V479.239z"/>
		<path style="fill:#FFFFFF;" d="M343.063,482.346l0.164-0.321c0.282,0.276,0.784,0.479,1.302,0.479c0.739,0,1.06-0.31,1.06-0.699
			c0-1.083-2.43-0.417-2.43-1.877c0-0.581,0.451-1.083,1.455-1.083c0.446,0,0.908,0.13,1.224,0.35l-0.141,0.333
			c-0.338-0.22-0.733-0.327-1.083-0.327c-0.722,0-1.043,0.321-1.043,0.716c0,1.083,2.43,0.429,2.43,1.866
			c0,0.581-0.462,1.077-1.472,1.077C343.937,482.858,343.356,482.65,343.063,482.346z"/>
	</g>
</g>
<g>
</g>
<g>
	<linearGradient id="SVGID_1_" gradientUnits="userSpaceOnUse" x1="117.273" y1="309.6819" x2="352.4985" y2="74.4563">
		<stop  offset="0" style="stop-color:#2982F8"/>
		<stop  offset="0.3295" style="stop-color:#10BCDF"/>
		<stop  offset="0.6006" style="stop-color:#05D7D3"/>
		<stop  offset="1" style="stop-color:#00E2CE"/>
	</linearGradient>
	<path style="fill:url(#SVGID_1_);" d="M250,32c-80.056,0-144.955,64.899-144.955,144.955c0,16.829,2.9,32.974,8.174,48.002
		c3.305,18.901,3.753,27.301,1.309,40.229c-1.749,9.254-7.096,15.302-6.2,23.982c0.813,7.876,1.391,12.381,8.438,20.006
		c8.318,8.433,16.022,7.915,18.487,8.294c8.559,1.316,14.905-3.541,24.208-4.703c14.633-1.829,25.255-2.831,49.209,3.157
		c0.096,0.024,0.179,0.032,0.272,0.053c13.022,3.84,26.792,5.936,41.058,5.936c80.056,0,144.955-64.898,144.955-144.955
		S330.056,32,250,32z"/>
	<circle style="fill:#FD71C8;" cx="270.12" cy="130.106" r="9.81"/>
	<path style="fill:#FFFFFF;" d="M186.427,142.008c-5.405,0-10.347,1.096-14.671,3.218c-5.374,2.897-6.15,0.44-6.667-0.22
		c-0.52-0.664-0.397-1.475-3.039-1.46h-9.227c0,0-6.281-0.361-5.994,3.817c0,0,0.556,13.489,0.556,21.938v66.688
		c0,5.131,3.737,9.756,8.847,10.215c5.773,0.518,10.637-4.035,10.637-9.702v-15.987c0-2.387,2.458-4.078,4.632-3.091
		c3.842,1.745,8.207,2.666,12.828,2.666c16.581,0,34.426-12.523,34.426-40.02C218.755,158.015,205.159,142.008,186.427,142.008z
		 M182.231,203.125c-7.047,0-13.013-4.631-14.887-11.54c-0.001-0.004-0.002-0.008-0.003-0.012c-0.252-1.398-0.473-2.777-0.473-4.229
		v-11.609c0-1.317,0.405-2.954,0.723-4.123c1.896-7.359,8.088-12.498,15.059-12.498c11.384,0,16.48,10.806,16.48,21.515
		C199.131,194.715,192.813,203.125,182.231,203.125z M330.038,142.008c-4.824,0-9.397,1.045-13.478,3.058
		c-1.712,0.844-5.792,0.6-6.816,0.088c-1.042-0.522-1.745-1.607-2.989-1.607h-10.982c-2.128,0-3.807,1.809-3.648,3.931
		c0.386,5.144,0.55,10.541,0.55,18.048v43.285c0.086,3.499,0.432,3.658,0.432,3.658c1.537,3.78,5.804,6.386,10.198,6.056
		c5.174-0.389,8.993-5.056,8.993-10.244v-34.083c0-1.744,0.23-3.421,0.618-4.483l0.061-0.181c1.524-4.977,6.136-9.998,13.005-9.998
		c7.967,0,12.005,5.498,12.005,16.34v32.936c0.288,8.582,6.236,10.044,10.63,9.714c5.174-0.389,8.993-5.056,8.993-10.244v-33.804
		C357.612,150.511,342.758,142.008,330.038,142.008z M269.836,143.545c-4.079,0-9.881,2.454-9.881,8.043v57.222
		c0,8.019,5.803,9.742,9.881,9.742c5.371,0,9.742-4.371,9.742-9.742v-55.523C279.578,147.915,275.207,143.545,269.836,143.545z
		 M236.734,111.938c-5.065,0-9.262,3.776-9.763,8.783l-0.018,0.181v88.685l0.018,0.182c0.502,5.007,4.7,8.783,9.763,8.783
		c5.427,0,9.843-4.371,9.843-9.742v-87.13C246.577,116.308,242.161,111.938,236.734,111.938z"/>
	<g>
		<path style="fill:#4D4D4D;" d="M196.965,415.727c-0.673-0.348-1.186-0.853-1.538-1.514c-0.352-0.661-0.529-1.459-0.529-2.393
			v-0.012c0-0.562,0.073-1.069,0.22-1.52c0.146-0.451,0.325-0.843,0.534-1.176c0.21-0.333,0.497-0.736,0.861-1.211
			c0.396-0.507,0.716-0.956,0.962-1.348c0.245-0.392,0.451-0.863,0.618-1.414c0.166-0.55,0.249-1.185,0.249-1.905h2.423
			c0,0.839-0.095,1.587-0.285,2.244c-0.19,0.658-0.42,1.212-0.689,1.663c-0.269,0.451-0.622,0.97-1.057,1.556
			c-0.317,0.435-0.566,0.794-0.748,1.075s-0.333,0.593-0.451,0.938c-0.119,0.344-0.178,0.714-0.178,1.11v0.013
			c0,0.689,0.176,1.223,0.528,1.603s0.845,0.57,1.479,0.57c0.641,0,1.138-0.236,1.49-0.706c0.352-0.471,0.532-1.138,0.54-2.001
			v-0.012h2.459v0.012c-0.032,1.045-0.23,1.938-0.594,2.678c-0.364,0.74-0.875,1.305-1.532,1.692
			c-0.657,0.388-1.437,0.582-2.34,0.582C198.446,416.249,197.638,416.075,196.965,415.727z M200.825,401.344h-2.541v-2.541h2.541
			V401.344z"/>
		<path style="fill:#4D4D4D;" d="M203.616,393.969h12.185v2.304h-12.185V393.969z M208.497,395.383h2.423v15.855h-2.423V395.383z"/>
		<path style="fill:#4D4D4D;" d="M218.176,393.969h2.423v17.268h-2.423V393.969z M219.352,393.969h9.917v2.304h-9.917V393.969z
			 M219.352,401.511h8.611v2.304h-8.611V401.511z M219.352,408.933h9.917v2.304h-9.917V408.933z"/>
		<path style="fill:#4D4D4D;" d="M242.072,411.178c-0.745-0.158-1.439-0.396-2.084-0.713c-0.646-0.317-1.249-0.712-1.811-1.188
			l1.508-1.853c0.657,0.57,1.381,0.998,2.173,1.283c0.792,0.285,1.651,0.428,2.577,0.428c1.251,0,2.221-0.232,2.909-0.695
			c0.689-0.463,1.033-1.118,1.033-1.966v-0.012c0-0.602-0.156-1.079-0.469-1.431c-0.313-0.353-0.717-0.614-1.212-0.784
			c-0.495-0.17-1.134-0.327-1.918-0.47c-0.024-0.008-0.049-0.012-0.077-0.012c-0.028,0-0.053-0.004-0.077-0.012l-0.178-0.036
			c-1.156-0.198-2.096-0.421-2.82-0.671c-0.725-0.249-1.344-0.704-1.859-1.366c-0.515-0.661-0.772-1.601-0.772-2.82v-0.013
			c0-1.069,0.239-1.981,0.719-2.737c0.479-0.756,1.177-1.332,2.096-1.728s2.023-0.594,3.314-0.594c0.618,0,1.225,0.068,1.823,0.202
			c0.598,0.135,1.188,0.334,1.77,0.6c0.582,0.265,1.154,0.599,1.716,1.004l-1.378,1.924c-0.657-0.483-1.312-0.845-1.966-1.087
			c-0.653-0.241-1.308-0.362-1.966-0.362c-1.18,0-2.096,0.236-2.749,0.707c-0.654,0.47-0.98,1.138-0.98,2.001v0.012
			c0,0.594,0.168,1.061,0.505,1.401c0.336,0.341,0.756,0.592,1.259,0.755c0.503,0.162,1.202,0.331,2.096,0.505
			c0.032,0.008,0.061,0.013,0.089,0.018c0.028,0.004,0.057,0.01,0.089,0.018c0.04,0.008,0.083,0.017,0.131,0.024
			c0.048,0.008,0.091,0.016,0.131,0.023c1.045,0.214,1.918,0.467,2.619,0.76c0.701,0.292,1.287,0.765,1.758,1.419
			c0.471,0.654,0.707,1.546,0.707,2.678v0.023c0,1.053-0.249,1.954-0.748,2.702c-0.499,0.749-1.221,1.319-2.167,1.711
			c-0.946,0.392-2.088,0.587-3.426,0.587C243.604,411.415,242.816,411.336,242.072,411.178z"/>
		<path style="fill:#4D4D4D;" d="M256.406,411.237h-2.423v-17.268h2.423V411.237z"/>
		<path style="fill:#4D4D4D;" d="M260.682,393.957h2.423v17.28h-2.423V393.957z M261.739,401.629h5.891
			c0.459,0,0.867-0.111,1.223-0.333c0.356-0.221,0.631-0.536,0.825-0.944c0.194-0.408,0.291-0.877,0.291-1.407
			c0-0.53-0.097-0.999-0.291-1.407c-0.194-0.408-0.467-0.722-0.819-0.944c-0.353-0.221-0.762-0.333-1.229-0.333h-5.891v-2.304h5.796
			c0.998,0,1.874,0.206,2.631,0.618c0.756,0.412,1.342,0.996,1.757,1.752c0.416,0.755,0.623,1.629,0.623,2.618
			c0,0.99-0.21,1.863-0.629,2.619c-0.42,0.756-1.008,1.34-1.763,1.752c-0.756,0.412-1.63,0.618-2.619,0.618h-5.796V401.629z
			 M266.442,403.398l2.411-0.546l4.417,8.384h-2.874L266.442,403.398z"/>
		<path style="fill:#4D4D4D;" d="M274.636,393.969h2.637l4.145,13.539l4.145-13.539h2.637l-5.629,17.268h-2.304L274.636,393.969z"/>
		<path style="fill:#4D4D4D;" d="M293.235,411.237h-2.423v-17.268h2.423V411.237z"/>
		<path style="fill:#4D4D4D;" d="M300.04,410.626c-0.918-0.526-1.629-1.271-2.132-2.233c-0.503-0.962-0.754-2.076-0.754-3.343
			v-4.893c0-1.267,0.251-2.382,0.754-3.344c0.503-0.962,1.213-1.706,2.132-2.233c0.918-0.526,1.98-0.79,3.183-0.79
			c1.203,0,2.264,0.264,3.182,0.79c0.918,0.527,1.63,1.271,2.132,2.233c0.503,0.962,0.755,2.077,0.755,3.344v4.893
			c0,1.267-0.252,2.381-0.755,3.343c-0.502,0.962-1.213,1.706-2.132,2.233s-1.979,0.79-3.182,0.79
			C302.02,411.415,300.959,411.152,300.04,410.626z M305.106,408.547c0.542-0.321,0.962-0.776,1.259-1.366
			c0.297-0.59,0.445-1.273,0.445-2.049v-5.059c0-0.776-0.149-1.458-0.445-2.048c-0.298-0.59-0.717-1.045-1.259-1.366
			c-0.542-0.32-1.17-0.48-1.882-0.48c-0.713,0-1.34,0.16-1.883,0.48c-0.542,0.321-0.962,0.776-1.259,1.366s-0.445,1.273-0.445,2.048
			v5.059c0,0.776,0.149,1.459,0.445,2.049s0.716,1.045,1.259,1.366c0.542,0.321,1.17,0.481,1.883,0.481
			C303.936,409.029,304.563,408.868,305.106,408.547z"/>
		<path style="fill:#4D4D4D;" d="M314.921,404.563c0.191-0.657,0.42-1.211,0.689-1.662c0.269-0.451,0.621-0.97,1.057-1.556
			c0.316-0.435,0.566-0.794,0.748-1.075s0.333-0.594,0.451-0.938c0.119-0.344,0.178-0.715,0.178-1.111v-0.012
			c0-0.689-0.176-1.223-0.528-1.603c-0.353-0.38-0.846-0.571-1.479-0.571c-0.641,0-1.138,0.236-1.49,0.707
			c-0.353,0.471-0.532,1.138-0.541,2.001v0.012h-2.459v-0.012c0.032-1.045,0.23-1.938,0.594-2.678s0.875-1.305,1.532-1.692
			c0.658-0.388,1.437-0.582,2.34-0.582c0.942,0,1.75,0.175,2.423,0.523s1.186,0.853,1.538,1.514
			c0.353,0.661,0.529,1.458,0.529,2.393v0.013c0,0.562-0.074,1.069-0.22,1.52c-0.146,0.451-0.325,0.843-0.535,1.175
			c-0.21,0.333-0.496,0.737-0.861,1.212c-0.396,0.506-0.716,0.956-0.962,1.348c-0.246,0.392-0.451,0.863-0.618,1.413
			c-0.166,0.551-0.249,1.186-0.249,1.906h-2.423C314.636,405.968,314.731,405.22,314.921,404.563z M314.576,408.696h2.542v2.541
			h-2.542V408.696z"/>
	</g>
	<g>
		<path style="fill:#4D4D4D;" d="M230.326,426.74v4.629h-1.598v-4.629l-3.47-6.76h1.778l2.491,5.139l2.491-5.139h1.778
			L230.326,426.74z"/>
		<path style="fill:#4D4D4D;" d="M234.775,430.864c-0.496-0.415-0.744-1.045-0.744-1.891c0-0.804,0.227-1.407,0.682-1.809
			c0.454-0.402,1.141-0.603,2.06-0.603h2.311l0.109,1.284h-2.412c-0.418,0-0.73,0.093-0.936,0.278
			c-0.206,0.186-0.31,0.469-0.31,0.85c0,0.413,0.137,0.718,0.411,0.917c0.274,0.198,0.691,0.298,1.249,0.298
			c0.611,0,1.067-0.065,1.367-0.196c0.3-0.13,0.45-0.333,0.45-0.611l0.165,1.144c-0.141,0.219-0.315,0.399-0.521,0.54
			c-0.206,0.141-0.445,0.247-0.717,0.318c-0.272,0.07-0.577,0.106-0.916,0.106C236.021,431.487,235.271,431.279,234.775,430.864z
			 M239.013,426.215c0-0.533-0.142-0.947-0.427-1.242c-0.285-0.295-0.688-0.442-1.211-0.442c-0.324,0-0.641,0.049-0.951,0.149
			c-0.311,0.099-0.586,0.237-0.826,0.414l-1.167-0.799c0.308-0.37,0.714-0.659,1.218-0.865s1.064-0.31,1.68-0.31
			c0.674,0,1.251,0.12,1.731,0.357c0.48,0.237,0.846,0.582,1.096,1.034c0.251,0.452,0.376,0.996,0.376,1.633v5.225h-1.52V426.215z"
			/>
		<path style="fill:#4D4D4D;" d="M242.96,423.239h1.598v11.436h-1.598V423.239z M245.279,431.123
			c-0.376-0.243-0.653-0.587-0.83-1.03l0.109-1.7c0,0.35,0.063,0.648,0.188,0.893s0.307,0.434,0.544,0.564
			c0.238,0.13,0.526,0.196,0.866,0.196c0.527,0,0.936-0.16,1.226-0.481c0.29-0.322,0.435-0.775,0.435-1.36v-1.762
			c0-0.596-0.145-1.058-0.435-1.386c-0.29-0.329-0.698-0.494-1.226-0.494c-0.34,0-0.628,0.063-0.866,0.188
			c-0.238,0.125-0.419,0.309-0.544,0.552c-0.125,0.242-0.188,0.534-0.188,0.873l-0.164-1.567c0.245-0.475,0.567-0.842,0.963-1.101
			c0.397-0.258,0.838-0.388,1.324-0.388c0.575,0,1.067,0.13,1.477,0.388c0.41,0.259,0.722,0.636,0.936,1.132
			c0.214,0.496,0.321,1.094,0.321,1.793v1.77c0,0.689-0.11,1.279-0.329,1.771c-0.219,0.491-0.54,0.865-0.963,1.124
			c-0.423,0.258-0.93,0.388-1.52,0.388C246.096,431.487,245.655,431.365,245.279,431.123z"/>
		<path style="fill:#4D4D4D;" d="M253.088,431.063c-0.533-0.282-0.939-0.695-1.218-1.241c-0.28-0.546-0.419-1.205-0.419-1.978
			v-0.916c0-0.805,0.135-1.491,0.403-2.06c0.269-0.569,0.659-1.003,1.171-1.3c0.511-0.298,1.128-0.447,1.849-0.447
			c0.679,0,1.258,0.171,1.739,0.51c0.481,0.339,0.847,0.83,1.101,1.472c0.253,0.642,0.38,1.412,0.38,2.311v0.532h-5.483v-1.284
			h3.964c-0.047-0.664-0.218-1.179-0.513-1.547c-0.295-0.369-0.691-0.552-1.187-0.552c-0.606,0-1.075,0.199-1.406,0.595
			c-0.332,0.397-0.497,0.959-0.497,1.685v1.034c0,0.674,0.177,1.19,0.532,1.551c0.355,0.36,0.859,0.54,1.512,0.54
			c0.324,0,0.645-0.065,0.964-0.196c0.318-0.13,0.603-0.313,0.854-0.548l1.05,1.05c-0.402,0.386-0.854,0.685-1.355,0.897
			c-0.501,0.211-1.005,0.318-1.512,0.318C254.263,431.487,253.621,431.346,253.088,431.063z"/>
		<path style="fill:#4D4D4D;" d="M260.638,430.864c-0.496-0.415-0.744-1.045-0.744-1.891c0-0.804,0.227-1.407,0.681-1.809
			c0.455-0.402,1.142-0.603,2.06-0.603h2.311l0.11,1.284h-2.413c-0.418,0-0.73,0.093-0.936,0.278
			c-0.206,0.186-0.309,0.469-0.309,0.85c0,0.413,0.137,0.718,0.411,0.917c0.274,0.198,0.69,0.298,1.249,0.298
			c0.611,0,1.066-0.065,1.366-0.196c0.3-0.13,0.45-0.333,0.45-0.611l0.165,1.144c-0.141,0.219-0.315,0.399-0.521,0.54
			c-0.206,0.141-0.445,0.247-0.717,0.318c-0.272,0.07-0.577,0.106-0.917,0.106C261.884,431.487,261.135,431.279,260.638,430.864z
			 M264.876,426.215c0-0.533-0.142-0.947-0.427-1.242c-0.284-0.295-0.688-0.442-1.21-0.442c-0.323,0-0.641,0.049-0.952,0.149
			c-0.31,0.099-0.586,0.237-0.826,0.414l-1.167-0.799c0.308-0.37,0.714-0.659,1.218-0.865s1.065-0.31,1.681-0.31
			c0.674,0,1.25,0.12,1.731,0.357c0.481,0.237,0.847,0.582,1.097,1.034c0.25,0.452,0.375,0.996,0.375,1.633v5.225h-1.519V426.215z"
			/>
		<path style="fill:#4D4D4D;" d="M268.825,423.239h1.598v8.13h-1.598V423.239z M273.681,426.443c0-0.575-0.141-1.019-0.423-1.332
			c-0.282-0.313-0.682-0.47-1.198-0.47c-0.522,0-0.926,0.138-1.21,0.415c-0.285,0.277-0.427,0.665-0.427,1.167l-0.165-1.566
			c0.251-0.491,0.578-0.87,0.983-1.137c0.404-0.266,0.852-0.399,1.344-0.399c0.569,0,1.055,0.13,1.457,0.388
			c0.402,0.259,0.709,0.636,0.92,1.132c0.211,0.496,0.318,1.094,0.318,1.793v4.935h-1.598V426.443z M278.537,426.443
			c0-0.575-0.149-1.019-0.446-1.332c-0.297-0.313-0.715-0.47-1.254-0.47c-0.496,0-0.88,0.151-1.152,0.454
			c-0.272,0.303-0.407,0.731-0.407,1.285l-0.321-1.567c0.256-0.538,0.593-0.954,1.014-1.249c0.42-0.295,0.884-0.443,1.391-0.443
			c0.585,0,1.085,0.13,1.5,0.388c0.415,0.259,0.731,0.636,0.948,1.132c0.216,0.496,0.325,1.094,0.325,1.793v4.935h-1.598V426.443z"
			/>
		<path style="fill:#4D4D4D;" d="M283.965,431.063c-0.532-0.282-0.938-0.695-1.218-1.241c-0.279-0.546-0.42-1.205-0.42-1.978v-0.916
			c0-0.805,0.135-1.491,0.404-2.06c0.269-0.569,0.659-1.003,1.171-1.3c0.512-0.298,1.128-0.447,1.849-0.447
			c0.679,0,1.259,0.171,1.739,0.51c0.48,0.339,0.847,0.83,1.101,1.472c0.253,0.642,0.38,1.412,0.38,2.311v0.532h-5.483v-1.284h3.963
			c-0.047-0.664-0.218-1.179-0.513-1.547c-0.295-0.369-0.69-0.552-1.187-0.552c-0.606,0-1.074,0.199-1.406,0.595
			c-0.332,0.397-0.497,0.959-0.497,1.685v1.034c0,0.674,0.177,1.19,0.532,1.551c0.355,0.36,0.859,0.54,1.512,0.54
			c0.323,0,0.645-0.065,0.964-0.196c0.318-0.13,0.603-0.313,0.854-0.548l1.05,1.05c-0.403,0.386-0.854,0.685-1.355,0.897
			c-0.501,0.211-1.005,0.318-1.512,0.318C285.14,431.487,284.498,431.346,283.965,431.063z"/>
		<path style="fill:#4D4D4D;" d="M223.868,442.377l-0.008,0.282c-0.13,0.241-0.328,0.417-0.591,0.529
			c-0.264,0.112-0.576,0.168-0.936,0.168c-0.543,0-1.021-0.138-1.434-0.414s-0.732-0.667-0.959-1.172
			c-0.227-0.503-0.341-1.087-0.341-1.75v-0.008c0-0.736,0.124-1.366,0.372-1.888c0.248-0.521,0.611-0.918,1.089-1.19
			c0.478-0.272,1.05-0.408,1.719-0.408s1.24,0.139,1.715,0.415c0.476,0.277,0.837,0.679,1.085,1.207
			c0.248,0.527,0.372,1.162,0.372,1.903v0.008c0,0.408-0.052,0.842-0.157,1.305c-0.104,0.462-0.253,0.92-0.446,1.375
			c-0.031,0.068-0.063,0.137-0.094,0.207c-0.031,0.071-0.066,0.14-0.102,0.208l-2.428,4.88h-1.723L223.868,442.377z M223.943,441.39
			c0.274-0.339,0.411-0.817,0.411-1.433v-0.008c0-0.6-0.137-1.065-0.411-1.394c-0.274-0.329-0.662-0.494-1.163-0.494
			c-0.506,0-0.897,0.165-1.171,0.494c-0.274,0.329-0.411,0.796-0.411,1.402v0.008c0,0.616,0.137,1.093,0.411,1.43
			s0.664,0.505,1.171,0.505C223.281,441.899,223.669,441.729,223.943,441.39z"/>
		<path style="fill:#4D4D4D;" d="M229.586,447.758c-0.522-0.261-0.926-0.631-1.21-1.108c-0.285-0.478-0.427-1.033-0.427-1.665
			v-0.188c0-0.569,0.142-1.105,0.427-1.605c0.285-0.501,0.664-0.88,1.14-1.136c-0.402-0.22-0.725-0.536-0.967-0.952
			s-0.364-0.852-0.364-1.312v-0.274c0-0.596,0.133-1.119,0.399-1.57c0.266-0.452,0.642-0.802,1.128-1.05
			c0.486-0.248,1.05-0.373,1.692-0.373c0.643,0,1.206,0.125,1.692,0.373c0.486,0.247,0.862,0.598,1.128,1.05
			c0.266,0.451,0.399,0.974,0.399,1.57v0.274c0,0.47-0.124,0.911-0.372,1.324c-0.248,0.413-0.575,0.725-0.983,0.94
			c0.481,0.261,0.865,0.641,1.155,1.139c0.29,0.499,0.435,1.033,0.435,1.602v0.188c0,0.632-0.142,1.187-0.427,1.665
			c-0.285,0.477-0.688,0.847-1.211,1.108c-0.522,0.261-1.128,0.392-1.817,0.392C230.714,448.15,230.108,448.019,229.586,447.758z
			 M232.383,446.395c0.282-0.146,0.5-0.351,0.654-0.615c0.154-0.263,0.231-0.567,0.231-0.913v-0.109c0-0.349-0.077-0.657-0.231-0.92
			c-0.154-0.264-0.372-0.469-0.654-0.615c-0.282-0.146-0.608-0.219-0.979-0.219c-0.371,0-0.697,0.073-0.979,0.219
			s-0.5,0.353-0.654,0.619c-0.154,0.266-0.231,0.574-0.231,0.924v0.117c0,0.345,0.077,0.648,0.231,0.908
			c0.154,0.262,0.372,0.464,0.654,0.608c0.282,0.144,0.608,0.216,0.979,0.216C231.774,446.615,232.101,446.541,232.383,446.395z
			 M232.249,441.26c0.245-0.138,0.436-0.335,0.572-0.591c0.136-0.257,0.204-0.552,0.204-0.886v-0.109c0-0.318-0.068-0.6-0.204-0.846
			c-0.136-0.246-0.326-0.435-0.572-0.568c-0.246-0.133-0.527-0.2-0.846-0.2c-0.318,0-0.6,0.067-0.846,0.2
			c-0.246,0.134-0.436,0.323-0.572,0.568c-0.136,0.246-0.204,0.53-0.204,0.854v0.117c0,0.329,0.068,0.62,0.204,0.873
			c0.135,0.253,0.326,0.45,0.572,0.587c0.245,0.139,0.527,0.208,0.846,0.208C231.722,441.468,232.004,441.399,232.249,441.26z"/>
		<path style="fill:#4D4D4D;" d="M238.312,447.746c-0.475-0.269-0.837-0.66-1.085-1.175c-0.248-0.514-0.372-1.134-0.372-1.86v-0.008
			c0-0.424,0.05-0.867,0.149-1.332c0.099-0.465,0.243-0.922,0.431-1.371c0.031-0.079,0.065-0.155,0.102-0.232
			c0.037-0.075,0.073-0.15,0.11-0.223l2.475-4.903h1.723l-2.906,5.679l0.008-0.282c0.13-0.246,0.321-0.436,0.572-0.572
			c0.251-0.136,0.543-0.204,0.877-0.204c0.59,0,1.097,0.133,1.52,0.399c0.423,0.267,0.744,0.654,0.964,1.163
			c0.219,0.509,0.329,1.122,0.329,1.837v0.008c0,0.731-0.124,1.358-0.372,1.88c-0.248,0.521-0.611,0.918-1.089,1.19
			c-0.478,0.272-1.051,0.408-1.719,0.408C239.359,448.15,238.787,448.015,238.312,447.746z M241.198,446.144
			c0.274-0.313,0.411-0.76,0.411-1.34v-0.008c0-0.637-0.144-1.129-0.431-1.477c-0.287-0.347-0.697-0.521-1.23-0.521
			c-0.475,0-0.843,0.175-1.104,0.525c-0.261,0.35-0.392,0.843-0.392,1.48v0.008c0,0.579,0.137,1.025,0.411,1.335
			c0.274,0.311,0.662,0.466,1.163,0.466C240.534,446.615,240.924,446.458,241.198,446.144z"/>
		<path style="fill:#4D4D4D;" d="M246.149,447.296c-0.551-0.569-0.826-1.363-0.826-2.381v-5.178c0-1.023,0.277-1.818,0.83-2.385
			c0.553-0.567,1.36-0.85,2.42-0.85c1.066,0,1.873,0.282,2.424,0.847c0.551,0.563,0.827,1.36,0.827,2.388v5.178
			c0,1.023-0.277,1.818-0.83,2.385c-0.554,0.567-1.361,0.85-2.421,0.85C247.508,448.15,246.699,447.865,246.149,447.296z
			 M249.822,446.188c0.269-0.295,0.404-0.72,0.404-1.273v-5.178c0-0.553-0.133-0.978-0.399-1.273
			c-0.267-0.295-0.684-0.442-1.254-0.442s-0.987,0.147-1.253,0.442c-0.266,0.295-0.399,0.72-0.399,1.273v5.178
			c0,0.553,0.135,0.978,0.403,1.273c0.269,0.295,0.686,0.442,1.249,0.442C249.137,446.63,249.553,446.483,249.822,446.188z"/>
		<path style="fill:#4D4D4D;" d="M254.017,444.899l3.822-8.248h1.645l-3.729,8.154h5.585v1.481h-7.324V444.899z M258.928,441.335
			h1.559v6.705h-1.559V441.335z"/>
		<path style="fill:#4D4D4D;" d="M264.818,447.758c-0.522-0.261-0.925-0.631-1.21-1.108c-0.284-0.478-0.427-1.033-0.427-1.665
			v-0.188c0-0.569,0.143-1.105,0.427-1.605c0.285-0.501,0.664-0.88,1.14-1.136c-0.402-0.22-0.725-0.536-0.968-0.952
			c-0.242-0.415-0.364-0.852-0.364-1.312v-0.274c0-0.596,0.133-1.119,0.399-1.57c0.266-0.452,0.642-0.802,1.127-1.05
			c0.486-0.248,1.05-0.373,1.692-0.373c0.642,0,1.206,0.125,1.691,0.373c0.486,0.247,0.862,0.598,1.128,1.05
			c0.267,0.451,0.399,0.974,0.399,1.57v0.274c0,0.47-0.125,0.911-0.372,1.324c-0.248,0.413-0.576,0.725-0.984,0.94
			c0.481,0.261,0.866,0.641,1.156,1.139c0.29,0.499,0.435,1.033,0.435,1.602v0.188c0,0.632-0.142,1.187-0.427,1.665
			c-0.284,0.477-0.688,0.847-1.21,1.108c-0.522,0.261-1.127,0.392-1.817,0.392S265.34,448.019,264.818,447.758z M267.614,446.395
			c0.282-0.146,0.501-0.351,0.654-0.615c0.154-0.263,0.231-0.567,0.231-0.913v-0.109c0-0.349-0.077-0.657-0.231-0.92
			c-0.154-0.264-0.372-0.469-0.654-0.615c-0.282-0.146-0.608-0.219-0.979-0.219c-0.371,0-0.697,0.073-0.979,0.219
			c-0.282,0.146-0.5,0.353-0.654,0.619c-0.155,0.266-0.232,0.574-0.232,0.924v0.117c0,0.345,0.077,0.648,0.232,0.908
			c0.154,0.262,0.372,0.464,0.654,0.608c0.282,0.144,0.608,0.216,0.979,0.216C267.005,446.615,267.332,446.541,267.614,446.395z
			 M267.481,441.26c0.246-0.138,0.436-0.335,0.572-0.591c0.136-0.257,0.204-0.552,0.204-0.886v-0.109c0-0.318-0.068-0.6-0.204-0.846
			c-0.135-0.246-0.326-0.435-0.572-0.568c-0.246-0.133-0.527-0.2-0.846-0.2s-0.601,0.067-0.847,0.2
			c-0.245,0.134-0.435,0.323-0.572,0.568c-0.135,0.246-0.203,0.53-0.203,0.854v0.117c0,0.329,0.068,0.62,0.203,0.873
			c0.136,0.253,0.327,0.45,0.572,0.587c0.246,0.139,0.528,0.208,0.847,0.208S267.235,441.399,267.481,441.26z"/>
		<path style="fill:#4D4D4D;" d="M278.205,438.069l-2.945,9.963h-1.7l2.945-9.87h-2.898v1.637h-1.598v-3.156h6.196V438.069z"/>
		<path style="fill:#4D4D4D;" d="M279.614,444.899l3.822-8.248h1.645l-3.729,8.154h5.585v1.481h-7.324V444.899z M284.525,441.335
			h1.559v6.705h-1.559V441.335z"/>
		<path style="fill:#4D4D4D;" d="M290.416,447.758c-0.522-0.261-0.925-0.631-1.21-1.108c-0.284-0.478-0.427-1.033-0.427-1.665
			v-0.188c0-0.569,0.143-1.105,0.427-1.605c0.285-0.501,0.664-0.88,1.14-1.136c-0.402-0.22-0.725-0.536-0.968-0.952
			c-0.242-0.415-0.364-0.852-0.364-1.312v-0.274c0-0.596,0.133-1.119,0.399-1.57c0.266-0.452,0.642-0.802,1.127-1.05
			c0.486-0.248,1.05-0.373,1.692-0.373c0.642,0,1.206,0.125,1.691,0.373c0.486,0.247,0.862,0.598,1.128,1.05
			c0.267,0.451,0.399,0.974,0.399,1.57v0.274c0,0.47-0.125,0.911-0.372,1.324c-0.248,0.413-0.576,0.725-0.984,0.94
			c0.481,0.261,0.866,0.641,1.156,1.139c0.29,0.499,0.435,1.033,0.435,1.602v0.188c0,0.632-0.142,1.187-0.427,1.665
			c-0.284,0.477-0.688,0.847-1.21,1.108s-1.127,0.392-1.817,0.392S290.938,448.019,290.416,447.758z M293.212,446.395
			c0.282-0.146,0.501-0.351,0.654-0.615c0.154-0.263,0.231-0.567,0.231-0.913v-0.109c0-0.349-0.077-0.657-0.231-0.92
			c-0.154-0.264-0.372-0.469-0.654-0.615c-0.282-0.146-0.608-0.219-0.979-0.219c-0.371,0-0.697,0.073-0.979,0.219
			c-0.282,0.146-0.5,0.353-0.654,0.619c-0.155,0.266-0.232,0.574-0.232,0.924v0.117c0,0.345,0.077,0.648,0.232,0.908
			c0.154,0.262,0.372,0.464,0.654,0.608c0.282,0.144,0.608,0.216,0.979,0.216C292.604,446.615,292.93,446.541,293.212,446.395z
			 M293.079,441.26c0.246-0.138,0.436-0.335,0.572-0.591c0.136-0.257,0.204-0.552,0.204-0.886v-0.109c0-0.318-0.068-0.6-0.204-0.846
			c-0.135-0.246-0.326-0.435-0.572-0.568c-0.246-0.133-0.527-0.2-0.846-0.2s-0.601,0.067-0.847,0.2
			c-0.245,0.134-0.435,0.323-0.572,0.568c-0.135,0.246-0.203,0.53-0.203,0.854v0.117c0,0.329,0.068,0.62,0.203,0.873
			c0.136,0.253,0.327,0.45,0.572,0.587c0.246,0.139,0.528,0.208,0.847,0.208S292.833,441.399,293.079,441.26z"/>
		<path style="fill:#4D4D4D;" d="M208.105,453.306h1.59v11.389h-1.59V453.306z M209.045,463.215h3.086
			c0.809,0,1.399-0.155,1.77-0.462c0.371-0.308,0.556-0.742,0.556-1.3v-0.023c0-0.387-0.066-0.719-0.2-0.995
			c-0.133-0.277-0.343-0.49-0.631-0.638c-0.287-0.149-0.656-0.223-1.104-0.223h-3.478v-1.441h3.478c0.59,0,1.035-0.139,1.335-0.415
			c0.3-0.277,0.45-0.687,0.45-1.23c0-0.569-0.167-0.994-0.501-1.276c-0.334-0.282-0.836-0.424-1.504-0.424h-3.258v-1.48h3.548
			c0.737,0,1.353,0.125,1.849,0.376c0.496,0.251,0.867,0.606,1.112,1.065c0.246,0.459,0.368,1.008,0.368,1.645
			c0,0.391-0.076,0.759-0.227,1.101c-0.152,0.342-0.383,0.634-0.693,0.877c-0.311,0.243-0.696,0.406-1.155,0.49
			c0.459,0.069,0.856,0.232,1.19,0.49c0.334,0.258,0.59,0.581,0.768,0.968c0.178,0.386,0.266,0.804,0.266,1.253v0.023
			c0,0.617-0.136,1.16-0.407,1.63c-0.272,0.47-0.661,0.833-1.167,1.089c-0.507,0.256-1.097,0.384-1.77,0.384h-3.681V463.215z"/>
		<path style="fill:#4D4D4D;" d="M218.656,464.189c-0.496-0.414-0.744-1.045-0.744-1.891c0-0.804,0.227-1.407,0.682-1.809
			c0.454-0.402,1.141-0.603,2.06-0.603h2.311l0.109,1.284h-2.412c-0.418,0-0.73,0.093-0.936,0.278
			c-0.206,0.186-0.31,0.469-0.31,0.85c0,0.413,0.137,0.718,0.411,0.917c0.274,0.198,0.691,0.298,1.249,0.298
			c0.611,0,1.067-0.065,1.367-0.196c0.3-0.13,0.45-0.333,0.45-0.611l0.165,1.144c-0.141,0.219-0.315,0.399-0.521,0.54
			c-0.206,0.141-0.445,0.247-0.717,0.318c-0.272,0.07-0.577,0.106-0.916,0.106C219.901,464.813,219.152,464.605,218.656,464.189z
			 M222.893,459.541c0-0.533-0.142-0.947-0.427-1.242c-0.285-0.295-0.688-0.442-1.21-0.442c-0.324,0-0.641,0.049-0.951,0.149
			c-0.311,0.099-0.586,0.237-0.827,0.415l-1.167-0.799c0.308-0.37,0.714-0.659,1.218-0.865s1.064-0.31,1.68-0.31
			c0.674,0,1.251,0.12,1.731,0.357c0.48,0.237,0.846,0.582,1.096,1.034c0.251,0.452,0.376,0.996,0.376,1.633v5.225h-1.52V459.541z"
			/>
		<path style="fill:#4D4D4D;" d="M228.364,464.671c-0.42-0.094-0.813-0.235-1.179-0.423c-0.366-0.188-0.702-0.423-1.01-0.705
			l0.948-1.167c0.439,0.334,0.875,0.585,1.308,0.751c0.433,0.167,0.862,0.251,1.284,0.251c0.632,0,1.106-0.098,1.422-0.293
			c0.316-0.196,0.474-0.49,0.474-0.882c0-0.261-0.086-0.456-0.258-0.587c-0.173-0.13-0.387-0.217-0.642-0.262
			c-0.256-0.045-0.616-0.085-1.081-0.122c-0.042,0-0.086-0.001-0.133-0.003c-0.047-0.003-0.092-0.007-0.133-0.013
			c-0.021,0-0.042-0.001-0.063-0.003s-0.042-0.004-0.063-0.004c-0.527-0.042-0.974-0.119-1.339-0.231
			c-0.366-0.113-0.67-0.323-0.913-0.631s-0.364-0.749-0.364-1.324c0-0.574,0.118-1.052,0.353-1.433
			c0.235-0.381,0.585-0.667,1.05-0.857c0.465-0.191,1.047-0.287,1.747-0.287c0.423,0,0.826,0.039,1.21,0.118
			c0.384,0.079,0.751,0.195,1.101,0.348c0.35,0.155,0.687,0.348,1.01,0.583l-0.963,1.167c-0.407-0.261-0.808-0.457-1.203-0.587
			c-0.394-0.13-0.779-0.196-1.155-0.196c-0.543,0-0.951,0.093-1.222,0.277c-0.272,0.186-0.407,0.464-0.407,0.835
			c0,0.219,0.077,0.384,0.231,0.493c0.154,0.109,0.348,0.183,0.584,0.22c0.235,0.036,0.569,0.068,1.002,0.094
			c0.031,0.005,0.064,0.008,0.098,0.008s0.069,0.003,0.106,0.008c0.016,0,0.031,0,0.047,0c0.015,0,0.031,0.003,0.047,0.008
			c0.569,0.037,1.054,0.113,1.453,0.227c0.399,0.115,0.735,0.342,1.006,0.681c0.272,0.34,0.407,0.831,0.407,1.473
			c0,0.585-0.125,1.07-0.376,1.453c-0.25,0.384-0.628,0.673-1.132,0.866c-0.504,0.193-1.137,0.29-1.9,0.29
			C229.235,464.813,228.784,464.765,228.364,464.671z"/>
		<path style="fill:#4D4D4D;" d="M235.159,453.306h1.598v1.598h-1.598V453.306z M235.159,456.564h1.598v8.13h-1.598V456.564z"/>
		<path style="fill:#4D4D4D;" d="M240.783,462.596c0,0.199,0.043,0.351,0.13,0.458c0.086,0.108,0.207,0.161,0.364,0.161h0.752v1.519
			h-0.94c-0.605,0-1.074-0.188-1.406-0.564c-0.332-0.376-0.498-0.906-0.498-1.59v-9.274h1.598V462.596z"/>
		<path style="fill:#4D4D4D;" d="M243.83,453.306h1.598v1.598h-1.598V453.306z M243.83,456.564h1.598v8.13h-1.598V456.564z"/>
		<path style="fill:#4D4D4D;" d="M249.164,464.397c-0.501-0.277-0.884-0.68-1.147-1.21c-0.264-0.53-0.396-1.168-0.396-1.915v-1.324
			c0-0.736,0.132-1.366,0.396-1.891c0.263-0.525,0.646-0.924,1.147-1.198c0.501-0.275,1.104-0.412,1.809-0.412
			c0.705,0,1.308,0.137,1.809,0.412c0.501,0.274,0.884,0.674,1.148,1.198c0.263,0.525,0.395,1.155,0.395,1.891v1.347
			c0,0.742-0.132,1.375-0.395,1.9c-0.264,0.525-0.646,0.926-1.148,1.203c-0.501,0.277-1.104,0.415-1.809,0.415
			C250.269,464.813,249.666,464.674,249.164,464.397z M252.27,462.768c0.306-0.349,0.458-0.841,0.458-1.472v-1.347
			c0-0.632-0.153-1.12-0.458-1.465c-0.305-0.344-0.738-0.516-1.296-0.516c-0.559,0-0.991,0.172-1.296,0.516
			c-0.305,0.345-0.458,0.833-0.458,1.465v1.347c0,0.632,0.153,1.123,0.458,1.472c0.305,0.35,0.737,0.525,1.296,0.525
			C251.532,463.293,251.964,463.118,252.27,462.768z"/>
		<path style="fill:#4D4D4D;" d="M262.731,464.291c-0.606-0.347-1.075-0.838-1.406-1.473c-0.332-0.634-0.497-1.369-0.497-2.205
			v-3.227c0-0.835,0.165-1.57,0.497-2.205c0.332-0.634,0.801-1.126,1.406-1.473c0.605-0.348,1.305-0.521,2.098-0.521
			c0.794,0,1.493,0.174,2.099,0.521c0.606,0.347,1.075,0.838,1.406,1.473c0.331,0.634,0.497,1.37,0.497,2.205v3.227
			c0,0.836-0.166,1.57-0.497,2.205c-0.332,0.634-0.801,1.126-1.406,1.473c-0.606,0.348-1.305,0.521-2.099,0.521
			C264.036,464.813,263.336,464.639,262.731,464.291z M266.071,462.921c0.358-0.211,0.634-0.511,0.831-0.901
			c0.196-0.389,0.293-0.839,0.293-1.351v-3.336c0-0.512-0.098-0.963-0.293-1.351c-0.196-0.389-0.473-0.689-0.831-0.901
			s-0.771-0.318-1.242-0.318c-0.47,0-0.883,0.106-1.241,0.318s-0.634,0.511-0.831,0.901c-0.196,0.389-0.293,0.839-0.293,1.351v3.336
			c0,0.512,0.098,0.963,0.293,1.351c0.196,0.389,0.473,0.689,0.831,0.901s0.771,0.318,1.241,0.318
			C265.3,463.238,265.714,463.132,266.071,462.921z M264.806,461.538l0.831-1.058l4.245,3.337l-0.831,1.066L264.806,461.538z"/>
		<path style="fill:#4D4D4D;" d="M272.968,461.507c0,0.569,0.145,1.009,0.435,1.32c0.29,0.31,0.699,0.465,1.226,0.465
			c0.521,0,0.927-0.138,1.214-0.414c0.287-0.277,0.43-0.671,0.43-1.183l0.109,1.7c-0.167,0.402-0.439,0.739-0.815,1.01
			c-0.375,0.272-0.837,0.408-1.386,0.408c-0.898,0-1.591-0.289-2.079-0.866s-0.732-1.391-0.732-2.44v-4.942h1.598V461.507z
			 M276.273,456.564h1.59v8.13h-1.59V456.564z"/>
		<path style="fill:#4D4D4D;" d="M280.292,453.306h1.598v1.598h-1.598V453.306z M280.292,456.564h1.598v8.13h-1.598V456.564z"/>
		<path style="fill:#4D4D4D;" d="M285.841,464.671c-0.42-0.094-0.814-0.235-1.179-0.423c-0.365-0.188-0.702-0.423-1.01-0.705
			l0.948-1.167c0.439,0.334,0.875,0.585,1.308,0.751c0.434,0.167,0.862,0.251,1.284,0.251c0.632,0,1.106-0.098,1.422-0.293
			c0.316-0.196,0.474-0.49,0.474-0.882c0-0.261-0.086-0.456-0.259-0.587c-0.172-0.13-0.386-0.217-0.642-0.262
			c-0.256-0.045-0.617-0.085-1.081-0.122c-0.042,0-0.086-0.001-0.133-0.003c-0.047-0.003-0.091-0.007-0.133-0.013
			c-0.021,0-0.042-0.001-0.063-0.003c-0.021-0.003-0.042-0.004-0.063-0.004c-0.527-0.042-0.974-0.119-1.34-0.231
			c-0.365-0.113-0.669-0.323-0.913-0.631c-0.243-0.308-0.364-0.749-0.364-1.324c0-0.574,0.118-1.052,0.353-1.433
			c0.235-0.381,0.585-0.667,1.05-0.857c0.465-0.191,1.047-0.287,1.747-0.287c0.423,0,0.827,0.039,1.21,0.118s0.75,0.195,1.101,0.348
			c0.35,0.155,0.687,0.348,1.01,0.583l-0.964,1.167c-0.407-0.261-0.808-0.457-1.202-0.587c-0.394-0.13-0.78-0.196-1.156-0.196
			c-0.543,0-0.95,0.093-1.222,0.277c-0.272,0.186-0.407,0.464-0.407,0.835c0,0.219,0.077,0.384,0.231,0.493
			c0.154,0.109,0.348,0.183,0.583,0.22c0.235,0.036,0.569,0.068,1.003,0.094c0.032,0.005,0.064,0.008,0.098,0.008
			c0.034,0,0.069,0.003,0.106,0.008c0.015,0,0.031,0,0.047,0c0.016,0,0.031,0.003,0.047,0.008c0.569,0.037,1.054,0.113,1.453,0.227
			c0.399,0.115,0.735,0.342,1.006,0.681c0.272,0.34,0.408,0.831,0.408,1.473c0,0.585-0.125,1.07-0.376,1.453
			c-0.251,0.384-0.628,0.673-1.132,0.866c-0.504,0.193-1.137,0.29-1.9,0.29C286.712,464.813,286.262,464.765,285.841,464.671z"/>
		<path style="fill:#4D4D4D;" d="M292.636,456.564h1.598V468h-1.598V456.564z M294.954,464.448c-0.376-0.243-0.653-0.587-0.831-1.03
			l0.11-1.7c0,0.35,0.063,0.648,0.188,0.893c0.125,0.246,0.307,0.434,0.544,0.564c0.237,0.13,0.526,0.196,0.866,0.196
			c0.527,0,0.936-0.16,1.226-0.481c0.289-0.322,0.435-0.775,0.435-1.36v-1.762c0-0.596-0.145-1.058-0.435-1.386
			c-0.29-0.329-0.699-0.494-1.226-0.494c-0.34,0-0.628,0.063-0.866,0.188c-0.237,0.125-0.419,0.309-0.544,0.552
			c-0.125,0.242-0.188,0.534-0.188,0.873l-0.165-1.567c0.246-0.475,0.567-0.842,0.964-1.101c0.397-0.258,0.838-0.388,1.324-0.388
			c0.574,0,1.066,0.13,1.476,0.388c0.41,0.259,0.722,0.636,0.937,1.132c0.214,0.496,0.321,1.094,0.321,1.793v1.77
			c0,0.689-0.109,1.279-0.329,1.771c-0.219,0.491-0.541,0.865-0.964,1.124c-0.423,0.258-0.929,0.388-1.519,0.388
			C295.772,464.813,295.33,464.691,294.954,464.448z"/>
		<path style="fill:#4D4D4D;" d="M302.763,464.389c-0.532-0.282-0.938-0.695-1.218-1.241c-0.279-0.546-0.42-1.205-0.42-1.978v-0.916
			c0-0.805,0.135-1.491,0.404-2.06c0.269-0.569,0.659-1.003,1.171-1.3c0.512-0.297,1.128-0.447,1.849-0.447
			c0.679,0,1.259,0.17,1.739,0.51c0.481,0.339,0.847,0.83,1.101,1.473c0.253,0.642,0.38,1.412,0.38,2.311v0.532h-5.483v-1.284h3.963
			c-0.047-0.664-0.218-1.179-0.513-1.547c-0.295-0.369-0.69-0.552-1.187-0.552c-0.606,0-1.074,0.199-1.406,0.595
			c-0.332,0.397-0.497,0.959-0.497,1.685v1.034c0,0.674,0.177,1.19,0.532,1.551c0.355,0.36,0.859,0.54,1.512,0.54
			c0.323,0,0.645-0.065,0.964-0.196s0.603-0.313,0.854-0.548l1.05,1.05c-0.403,0.386-0.854,0.685-1.355,0.897
			s-1.005,0.318-1.512,0.318C303.938,464.813,303.296,464.671,302.763,464.389z"/>
	</g>
</g>
</svg>
