<?xml version="1.0" standalone="no"?>
<!DOCTYPE svg PUBLIC "-//W3C//DTD SVG 20010904//EN"
 "http://www.w3.org/TR/2001/REC-SVG-20010904/DTD/svg10.dtd">
<svg version="1.0"
  xmlns="http://www.w3.org/2000/svg" width="300.000000pt" height="300.000000pt" viewBox="0 0 300.000000 300.000000" preserveAspectRatio="xMidYMid meet">

  <g transform="translate(0.000000,300.000000) scale(0.100000,-0.100000)" fill="#000000" stroke="none">
    <path d="M545 2985 c-33 -7 -86 -23 -117 -35 -158 -59 -319 -220 -378 -378
-51 -135 -51 -128 -48 -1105 l3 -912 27 -80 c37 -109 90 -195 169 -274 79 -79
165 -132 274 -169 l80 -27 940 0 940 0 75 23 c142 45 249 118 341 232 60 75
89 131 121 230 l23 75 0 940 0 940 -27 80 c-37 109 -90 195 -169 274 -79 79
-165 132 -274 169 l-80 27 -920 2 c-737 1 -932 -1 -980 -12z m1150 -349 c71
-18 124 -48 172 -94 223 -217 122 -588 -182 -667 -71 -18 -120 -19 -196 -3
-58 12 -58 12 -112 -24 -30 -20 -63 -38 -73 -40 -20 -3 -22 15 -14 128 3 33
-3 50 -30 89 -53 77 -72 139 -72 230 0 93 21 158 76 233 93 127 276 190 431
148z m646 -915 c32 -32 37 -66 17 -122 -30 -88 -103 -160 -186 -182 -46 -12
-56 -30 -50 -82 7 -63 65 -58 139 12 55 52 75 51 85 -2 6 -34 3 -40 -37 -81
-108 -110 -238 -124 -283 -30 -25 54 -21 171 9 263 34 99 65 151 125 207 45
42 53 46 100 46 44 0 56 -5 81 -29z m-384 -36 c89 -62 32 -404 -84 -506 -41
-35 -101 -39 -149 -10 l-32 19 -7 -65 c-4 -35 -5 -66 -3 -68 1 -2 91 8 198 21
236 29 316 31 342 7 22 -19 24 -56 4 -72 -11 -9 -508 -81 -559 -81 -4 0 -14
-18 -23 -40 -25 -63 -84 -69 -84 -8 l0 31 -52 -7 c-107 -14 -453 -88 -464 -99
-7 -7 -19 -37 -29 -67 -51 -160 -164 -329 -250 -370 -66 -32 -138 -25 -176 18
-39 43 -45 90 -24 168 38 139 156 265 320 340 63 29 64 31 99 143 l25 84 -28
-27 c-39 -38 -97 -57 -133 -44 -70 25 -74 128 -14 307 20 58 36 120 36 138 0
40 26 58 64 43 41 -15 42 -50 7 -175 -33 -121 -37 -155 -20 -172 19 -19 65 11
93 60 13 23 45 104 71 180 54 154 81 191 139 185 28 -3 31 -6 30 -35 -1 -17
-39 -163 -84 -323 -45 -161 -79 -294 -77 -296 3 -4 409 58 464 71 16 4 24 16
31 52 6 26 9 49 8 50 -1 2 -21 -5 -44 -13 -38 -16 -43 -16 -67 0 -14 9 -25 23
-25 32 0 9 -15 -1 -38 -25 -45 -48 -77 -57 -125 -38 -52 22 -71 65 -70 162 0
59 7 101 27 160 59 174 154 262 237 221 39 -20 36 -20 42 4 4 14 14 20 35 20
38 0 64 -24 57 -53 -39 -176 -56 -260 -62 -304 -5 -48 -4 -53 14 -53 37 0 50
33 83 210 40 213 42 220 74 220 35 0 56 -10 56 -27 0 -10 11 -5 35 16 40 35
95 42 132 16z"/>
    <path d="M1417 2380 c-62 -49 -41 -108 57 -159 38 -20 74 -44 80 -54 17 -27
-5 -51 -48 -55 -45 -4 -71 16 -80 59 -6 30 -26 38 -44 17 -28 -35 24 -113 84
-124 74 -14 136 16 150 73 12 45 -14 74 -98 116 -67 32 -78 41 -78 62 0 58
103 54 117 -4 8 -32 23 -43 40 -29 16 13 17 42 3 69 -26 48 -136 66 -183 29z"/>
    <path d="M1721 2251 c-81 -148 -91 -174 -70 -187 17 -10 32 11 113 160 79 145
89 176 57 176 -15 0 -39 -37 -100 -149z"/>
    <path d="M2206 1617 c-34 -44 -60 -107 -45 -107 20 0 76 39 93 65 9 13 16 36
16 50 0 37 -33 33 -64 -8z"/>
    <path d="M1826 1559 c-15 -17 -33 -47 -41 -65 -23 -55 -58 -211 -52 -228 10
-27 56 -19 87 14 51 55 94 224 71 283 -14 35 -33 34 -65 -4z"/>
    <path d="M1445 1531 c-41 -25 -61 -49 -84 -102 -43 -96 -34 -200 16 -207 30
-4 54 36 89 147 38 120 43 146 32 165 -11 20 -16 20 -53 -3z"/>
    <path d="M834 736 c-28 -19 -69 -55 -92 -81 -68 -77 -104 -177 -68 -191 21 -8
69 21 99 59 54 71 139 247 119 247 -4 0 -30 -15 -58 -34z"/>
  </g>
</svg>
